<?xml version="1.0" encoding="utf-8"?>
<!-- Generator: Adobe Illustrator 21.1.0, SVG Export Plug-In . SVG Version: 6.00 Build 0)  -->
<svg version="1.1" id="Ebene_1" xmlns="http://www.w3.org/2000/svg" xmlns:xlink="http://www.w3.org/1999/xlink" x="0px" y="0px"
	 viewBox="0 0 168.3377991 85.9319" style="enable-background:new 0 0 168.3377991 85.9319;" xml:space="preserve">
<style type="text/css">
	.st0{fill:#04080D;}
	.st1{fill:#FFFFFF;}
</style>
<polygon class="st0" points="84.1688995,83.1272964 165.5322113,75.7287979 165.5322113,21.8845997 84.1688995,2.8055 
	2.8055999,21.8845997 2.8055999,75.7287979 "/>
<g>
	<path class="st1" d="M5.6103001,73.1097031l78.5586014,7.2050934l78.5585938-7.2050934V24.1091995L84.1688995,5.6873002
		L5.6103001,24.1091995V73.1097031z M84.1688995,85.9319c-0.0644989,0-0.1288986-0.0018997-0.1934052-0.0057983
		L2.6122999,78.5277023C1.1416,78.4280014,0,77.2033997,0,75.7287979V21.8855991c0-1.3027992,0.8974-2.4345989,2.1659999-2.7325001
		L83.5282974,0.074c0.4217987-0.0986,0.8592987-0.0986,1.2812042,0l81.3622971,19.0790997
		c1.2686005,0.2979012,2.1660004,1.4297009,2.1660004,2.7325001v53.8432007c0,1.4746017-1.1415863,2.6992035-2.6123047,2.7989044
		l-81.3631973,7.3983994C84.2977982,85.9300003,84.2333984,85.9319,84.1688995,85.9319"/>
	<path class="st1" d="M25.8680992,46.2523003c0-1.3027992-0.3593998-2.3848-1.0303001-3.1231003
		c-0.7547989-0.8403015-1.8701-1.2523994-3.3456993-1.2523994h-1.030201l0.0009003,8.7543983h1.0293007
		c1.4755993,0,2.5917988-0.4296989,3.3466988-1.2538986C25.5086994,48.6389999,25.8680992,47.5413017,25.8680992,46.2523003
		 M27.8583984,46.2523003c0,1.8027-0.5302982,3.347599-1.5429993,4.464798
		c-0.5508003,0.6172028-1.2353992,1.097702-2.0429993,1.4063034c-0.8223,0.3260994-1.75,0.4979973-2.7793007,0.4979973h-2.3514996
		h-0.6700001V39.8865013h1.9902992h1.0293102c1.0292912,0,1.9569988,0.1534004,2.7792912,0.497097
		c0.8076,0.3086014,1.4940987,0.7900009,2.0429001,1.4071999C27.3270988,42.9061012,27.8583984,44.4514999,27.8583984,46.2523003"/>
	<path class="st1" d="M34.571209,43.1623993c-0.8242111,0.8241997-1.2871094,1.9238014-1.2871094,3.089901
		c0,1.1679001,0.464901,2.2655983,1.2871094,3.089798c0.8242912,0.8242035,1.9238892,1.2871017,3.0898895,1.285202
		c1.1679993,0,2.2656021-0.4629021,3.0898018-1.2871017c0.8241997-0.8242989,1.2851982-1.9218979,1.2851982-3.0898972
		c0-1.1660004-0.4628906-2.2656021-1.2870979-3.0879021c-0.8233032-0.8237-1.9219017-1.2875977-3.089901-1.2875977
		C36.4930992,41.8758011,35.3955002,42.3386993,34.571209,43.1623993 M35.1903992,52.1213989
		c-0.7714996-0.3261986-1.4413986-0.7891006-2.0253983-1.3710976c-0.5840034-0.5839996-1.0469017-1.2539024-1.3731022-2.0273018
		c-0.3260994-0.7695999-0.4979992-1.6114006-0.4979992-2.4706993c0-0.8594017,0.1709003-1.6992989,0.4979992-2.4902992
		c0.3243084-0.7544022,0.7890987-1.4233017,1.3710995-2.0239029c0.5839996-0.5829964,1.2539024-1.0292969,2.0245018-1.3563995
		c0.7733994-0.3261986,1.6142006-0.4981003,2.4715996-0.4981003c0.8583984,0,1.6992989,0.1719017,2.4902992,0.4981003
		c0.7558098,0.3261032,1.4238091,0.7705002,2.0243988,1.3554001c0.5839996,0.6006012,1.0303001,1.2695999,1.356411,2.0249023
		c0.3261909,0.7891006,0.4980888,1.6308975,0.4980888,2.4883003c0,0.8593979-0.1718979,1.6991997-0.4980888,2.4726982
		c-0.3261108,0.7714005-0.7715111,1.4413986-1.3545113,2.0254021c-0.6005974,0.5838966-1.2704887,1.0467987-2.0243988,1.3729973
		c-0.7910004,0.3262024-1.6328011,0.4980011-2.4902,0.4980011C36.8027,52.6194,35.9627991,52.4476013,35.1903992,52.1213989"/>
	<path class="st1" d="M54.0536995,50.0588989c-0.3614006,1.2363014-1.4766006,2.2148018-2.8652992,2.4902
		c-0.2578011,0.0508003-0.5156021,0.0684013-0.7723999,0.0684013c-0.5147018,0-1.0313034-0.0858994-1.5107918-0.2733994
		c-0.8076096-0.3262024-1.5097084-0.8594017-2.1113091-1.6309013l1.5780983-1.2363014
		c0.3614006,0.4804001,0.7891006,0.8242035,1.2539024,0.9961014c0.3769989,0.1543007,0.7901001,0.1875,1.1669998,0.1035004
		c0.6513977-0.1211014,1.1835976-0.5508003,1.3388977-1.0663986c0.1709023-0.5839996-0.2245903-1.097702-0.5849991-1.4414024
		c-0.5653992-0.5312996-1.4921989-1.4413986-1.5615005-1.5098l-1.5615005-1.4766006
		c-0.4814987-0.4628983-0.8075905-0.9784966-0.9794998-1.527298c-0.169899-0.5326996-0.1884995-1.0971985-0.0331993-1.6128006
		c0.1543007-0.5498009,0.4804993-1.0293007,0.9433022-1.4248009c0.4278069-0.3603973,0.9609985-0.6190987,1.5263977-0.7206993
		c0.6192017-0.1366997,1.2705002-0.0858994,1.8897018,0.1366997c0.6503983,0.2568016,1.2352982,0.6865005,1.732399,1.2871017
		l-1.5606003,1.2529984c-0.6523018-0.7891006-1.3222008-0.7891006-1.6826019-0.7207985
		c-0.4462967,0.0859985-0.8231964,0.3779984-0.9266968,0.7392998c-0.0684013,0.2392998-0.0507927,0.6352997,0.4804001,1.1488991
		l2.1288986,2.0429993c0.3086014,0.3086014,0.6865997,0.6679993,0.9609985,0.9258003
		c0.5488014,0.4980011,0.9258003,1.0643997,1.1152,1.6640015C54.2069969,48.8577003,54.2245979,49.4748993,54.0536995,50.0588989"/>
	<path class="st1" d="M64.4384003,50.0588989c-0.3602982,1.2344017-1.4765015,2.2129021-2.8651924,2.4883003
		c-0.2578087,0.0527-0.5156097,0.0683022-0.7734108,0.0683022c-0.514698,0-1.0292969-0.0859032-1.5098-0.2734032
		c-0.8065987-0.3261986-1.510788-0.857399-2.1112976-1.6308975l1.5780983-1.2343025
		c0.3613014,0.4785004,0.7910004,0.8222008,1.2539024,0.9941025c0.3768997,0.1543007,0.7890968,0.1894989,1.1679993,0.1035004
		c0.6512985-0.1211014,1.1835976-0.5508003,1.3378983-1.0643997c0.169899-0.5839996-0.2247009-1.0996017-0.5839996-1.4434013
		c-0.566391-0.5312004-1.4941978-1.4413986-1.5625-1.5098l-1.5625-1.4746017
		c-0.4794998-0.464798-0.8046989-0.9784966-0.9776001-1.527298c-0.1717911-0.5326996-0.1884003-1.099102-0.0340996-1.6138
		c0.1542015-0.5498009,0.4804001-1.030201,0.9443092-1.4248009c0.4276924-0.3612976,0.9608917-0.6180992,1.5263901-0.7216988
		c0.6191025-0.1376991,1.2705002-0.0868988,1.8886108,0.1376991c0.6523895,0.2569008,1.2343903,0.6856003,1.7323914,1.2871017
		l-1.5605011,1.2529984c-0.6523018-0.7891006-1.3223-0.7891006-1.6836014-0.7216988
		c-0.4452896,0.0858994-0.8222885,0.3778992-0.9258003,0.7383003c-0.0682983,0.2411995-0.0516968,0.6362,0.4805107,1.1517982
		l2.128891,2.0410004c0.3086014,0.3086014,0.6875,0.6699982,0.9608994,0.9258003
		c0.5489006,0.4981003,0.9277992,1.0644989,1.1162071,1.6660004C64.5926971,48.8558006,64.6102982,49.4748993,64.4384003,50.0588989
		"/>
</g>
<polygon class="st1" points="70.2060013,45.0628014 74.857399,45.0628014 74.857399,46.8636017 70.2060013,46.8655014 
	70.2080002,50.8128014 75.8525009,50.8128014 75.8535004,52.6136017 70.1903992,52.6155014 68.2157974,52.6155014 
	68.2137985,39.8796997 70.1884003,39.8787003 75.8515015,39.8787003 75.8515015,41.6638985 70.2060013,41.6649017 "/>
<polygon class="st1" points="81.9120941,44.4261017 81.9129944,52.6136017 79.9217987,52.6136017 79.9208984,39.2771988 
	87.919899,48.0471992 87.9179001,39.8768005 89.9256973,39.8758011 89.9276962,53.1955986 "/>
<polygon class="st1" points="103.3680954,52.6096992 101.3768997,52.6096992 101.3768997,47.1175003 96.2958984,47.1194 
	96.2967987,52.611599 94.3055954,52.611599 94.3045959,39.8758011 96.2958984,39.8758011 96.2958984,45.3167 
	101.3768997,45.3148003 101.375,39.8748016 103.3662109,39.8748016 "/>
<path class="st1" d="M113.9247971,48.094101l-1.5449982-3.8789024l-1.544899,3.8789024H113.9247971z M114.6455002,49.8792
	h-4.5312881l-1.0801163,2.7304993h-2.197197l5.5429001-13.3197975l5.526413,13.3197975h-2.1807175L114.6455002,49.8792z"/>
<polygon class="st1" points="128.566391,52.6077003 123.2294006,52.6077003 121.2547989,52.6077003 121.2528992,39.8718987 
	123.2430954,39.8718987 123.2450943,50.8050003 128.5653992,50.8050003 "/>
<polygon class="st1" points="139.0536957,52.6058006 133.7157898,52.6058006 131.743103,52.6058006 131.7412109,39.8708992 
	133.7313995,39.8708992 133.7323914,50.8030014 139.0536957,50.8030014 "/>
<polygon class="st1" points="144.219696,45.0530014 148.8710022,45.0530014 148.8710022,46.8538017 144.219696,46.8538017 
	144.219696,50.8030014 149.8670959,50.8030014 149.8670959,52.6038017 144.2030945,52.6038017 142.2294006,52.6038017 
	142.2274933,39.8689995 144.2021027,39.8689995 149.8662109,39.868 149.8662109,41.6530991 144.219696,41.6530991 "/>
<polygon class="st1" points="42.0214005,58.6976013 40.6278992,58.6955986 40.6219978,63.0569 39.8232079,63.0569 
	39.8270988,58.6955986 38.4325981,58.6936989 38.4334984,57.9827003 42.0223999,57.986599 "/>
<g>
	<path class="st1" d="M43.3232079,62.656601c-0.1992073-0.1504021-0.3496094-0.3339996-0.45121-0.5469017
		c-0.1161995-0.232399-0.169899-0.4921989-0.169899-0.7734985l0.0038986-3.347599h0.7930031l-0.0039024,3.3495979
		c0,0.3008003,0.1093025,0.5331993,0.3125,0.6913986c0.1924019,0.1504021,0.4726105,0.2402,0.7733994,0.2402
		c0.2940025,0,0.5742111-0.0878983,0.7714996-0.2402c0.2070007-0.1561966,0.3096008-0.3886986,0.3096008-0.6893997
		l0.0039024-3.3496971l0.7997971,0.0019989l-0.0038986,3.3476982c0,0.2812004-0.0625,0.5410004-0.1719017,0.7734032
		c-0.1093979,0.2128983-0.2616997,0.3944969-0.4511986,0.5468979c-0.3358994,0.2578011-0.7812004,0.4023018-1.2588005,0.4023018
		C44.1024971,63.0609016,43.6572075,62.9163017,43.3232079,62.656601"/>
	<path class="st1" d="M48.9774971,60.6408997c0.3281021,0,0.5742035-0.0956993,0.7324028-0.2733994
		c0.1894989-0.205101,0.2245979-0.4921989,0.2245979-0.6913986c0-0.205101-0.0331993-0.4922028-0.2245979-0.6973
		c-0.1562004-0.1777-0.4023018-0.2656021-0.7304993-0.2656021l-0.7109032-0.0019989l-0.0018997,1.9277992L48.9774971,60.6408997z
		 M51.0184975,63.0686989h-0.8964996l-1.2753983-1.7187996h-0.5810013L48.2625999,63.0667l-0.7910004-0.0018997l0.0048981-5.0723
		h0.6699028L48.9794006,57.9944c0.6699982,0.0019989,1.0585976,0.2753983,1.2636986,0.5079002
		c0.267601,0.294899,0.4101982,0.7030983,0.4101982,1.1757011c-0.0009995,0.4648972-0.1445999,0.875-0.4120903,1.1679993
		c-0.1231079,0.1366997-0.3145065,0.294899-0.5879097,0.3886986L51.0184975,63.0686989z"/>
</g>
<polygon class="st1" points="52.4365005,59.8088989 52.4325981,63.0705986 51.6395988,63.0705986 51.6455002,57.7580986 
	54.8270988,61.2542 54.8290977,58.0003014 55.6307983,58.0023003 55.6259003,63.3069 "/>
<polygon class="st1" points="57.4804001,60.0686989 59.3330002,60.0705986 59.3330002,60.7873993 57.4804001,60.7854996 
	57.4774971,62.3577003 59.7254982,62.361599 59.7254982,63.0783997 57.4696999,63.0764999 56.6825981,63.074501 
	56.6893997,58.0023003 57.4735985,58.0042 59.7313995,58.0061989 59.7304001,58.7170982 57.482399,58.7151985 "/>
<g>
	<path class="st1" d="M62.1688995,60.6545982c0.3280983,0,0.5723076-0.0956993,0.7304993-0.2733994
		c0.1922989-0.2050972,0.2265015-0.4902992,0.2265015-0.6894989c0-0.205101-0.0342026-0.4921989-0.2246017-0.6973
		c-0.1562004-0.1777-0.4023018-0.2675018-0.7304001-0.2675018l-0.7109985-0.0019989l-0.0018997,1.9296989H62.1688995z
		 M64.2089005,63.0822983h-0.8955002l-1.2754021-1.7167969l-0.5810013-0.0018997l-0.0028992,1.7167969h-0.7910995
		l0.0049019-5.0741997l0.669899,0.0018997h0.8330994c0.669899,0.0020027,1.0584984,0.2754021,1.2635994,0.5078011
		c0.2656021,0.295002,0.410202,0.705101,0.4091988,1.1758003c0,0.464901-0.1435966,0.875-0.4110985,1.169899
		c-0.1231003,0.1348-0.3144989,0.2929993-0.5889015,0.3887024L64.2089005,63.0822983z"/>
</g>
<path class="st1" d="M67.4032974,61.2893982L66.7890015,59.7444l-0.6172028,1.5429993L67.4032974,61.2893982z
	 M67.6884003,62.0003014l-1.8047028-0.0018997l-0.4305954,1.0858994H64.577095l2.2139053-5.3027l2.1962967,5.3065987h-0.8692017
	L67.6884003,62.0003014z"/>
<g>
	<path class="st1" d="M70.4872971,58.7288017l-0.0019989,1.5370979c0.1582031-0.0331993,0.3417969-0.0878983,0.5214996-0.1620979
		c0.2518997-0.1035004,0.4512024-0.2187004,0.5878983-0.3554001c0.142601-0.1368027,0.2108994-0.2813034,0.2108994-0.4454002
		c0-0.2441025-0.0878983-0.3398018-0.1639938-0.3945007c-0.190506-0.1445007-0.5586014-0.1777-0.8252029-0.1796989H70.4872971z
		 M72.1240005,61.5881996c0.0018997-0.267601-0.0868988-0.4785004-0.2647018-0.6503983
		c-0.1025009-0.1016006-0.2333984-0.1836014-0.3896027-0.2518997c-0.0683975,0.027298-0.1366959,0.0604973-0.2109985,0.0877991
		c-0.2811966,0.1152992-0.5604858,0.1835976-0.7733994,0.2324982l-0.0018997,1.3652l0.3261032,0.0020027
		c0.4335938,0,0.7812958-0.0762024,1.0077972-0.2188034C72.0292053,62.0197983,72.1240005,61.8401985,72.1240005,61.5881996
		 M72.8348999,61.5881996c0,0.2538986-0.053688,0.4785004-0.1640015,0.6836014
		c-0.1093979,0.1913986-0.2666931,0.3554993-0.4658966,0.4843979c-0.3476028,0.2187004-0.8193054,0.3339996-1.3955002,0.3339996
		h-0.4502029l-0.6688995-0.0019989l0.0048981-5.0703011h0.7939148h0.3271866
		c0.5615005,0.0018997,0.9707031,0.1035004,1.2578125,0.3164024c0.1571884,0.1171989,0.2723846,0.2675972,0.348587,0.4375
		c0.0674133,0.1562004,0.1016006,0.3358994,0.1016006,0.5331993c-0.0009995,0.2733994-0.0898972,0.6093979-0.3984985,0.9296989
		c0.0820999,0.0546989,0.1573105,0.1171989,0.2324982,0.1836014c0.1502991,0.152298,0.2675018,0.3163986,0.3476028,0.5
		C72.7958984,61.1234016,72.8368988,61.3479996,72.8348999,61.5881996"/>
</g>
<polygon class="st1" points="74.5047989,60.0862007 76.357399,60.0881996 76.357399,60.8069 74.5047989,60.8050003 
	74.5028992,62.3773003 76.7509003,62.3792 76.7509003,63.0960007 74.4951019,63.094101 73.7080002,63.094101 73.7137985,58.021801 
	74.5009003,58.021801 76.7567978,58.0237007 76.7547989,58.736599 74.5067978,58.7327003 "/>
<polygon class="st1" points="78.4833984,59.8381996 78.4794006,63.0998993 77.6865005,63.0979996 77.6932983,57.7854996 
	80.875,61.2835007 80.8778992,58.0295982 81.6786957,58.0295982 81.6727982,63.334301 "/>
<g>
	<path class="st1" d="M85.6786957,60.5705986c0.0018997-0.5194969-0.1416016-0.9491997-0.4081955-1.2440987
		c-0.3008041-0.3359985-0.7452011-0.5-1.3320999-0.5h-0.4101028l-0.0038986,3.4844017h0.4101028
		c0.5878983,0.0018997,1.0331955-0.1680031,1.3320999-0.4961014C85.5350952,61.5197983,85.6786957,61.0822983,85.6786957,60.5705986
		 M86.4715958,60.5726013c0,0.7167969-0.2128983,1.3319969-0.6151962,1.7753983
		c-0.2207031,0.2461014-0.4931946,0.4375-0.8144989,0.5605011c-0.3281021,0.1288986-0.6972046,0.1953011-1.107399,0.1953011h-0.9375
		h-0.267601l0.006897-5.0722008h0.7929077l0.4091949,0.0018997c0.4101944,0,0.7792969,0.0606003,1.1074982,0.1991997
		c0.3211975,0.1231003,0.5957031,0.3144989,0.8134003,0.5606003C86.2625961,59.2386017,86.4735947,59.8538017,86.4715958,60.5726013
		"/>
</g>
<rect x="90.3986206" y="59.2334251" transform="matrix(0.0014522 -0.9999989 0.9999989 0.0014522 30.0322647 151.2288055)" class="st1" width="0.6836003" height="2.6860528"/>
<g>
	<path class="st1" d="M97.8778992,62.1018982c-0.1445007,0.4922028-0.5899048,0.8808022-1.142601,0.9902
		C96.6327972,63.111599,96.5302124,63.1194,96.4276962,63.1194c-0.205101,0-0.410202-0.035099-0.6026001-0.1113014
		c-0.3202972-0.1288986-0.5996017-0.3417969-0.839798-0.6503983l0.6289139-0.4902
		c0.1444855,0.1913986,0.3153839,0.3261986,0.5,0.3964996c0.1493835,0.0605011,0.3144836,0.0761986,0.4648819,0.0410004
		c0.2597046-0.0469017,0.4707031-0.2168007,0.5332031-0.4219017c0.0682983-0.2343979-0.0878983-0.4393997-0.2314987-0.5761986
		c-0.2255859-0.2108994-0.5947037-0.5741997-0.6221008-0.6015015l-0.6211014-0.5898972
		c-0.191391-0.1836014-0.3202972-0.3886032-0.3885956-0.6074028c-0.0684052-0.2108994-0.0742035-0.4375-0.0137024-0.6425972
		c0.0625-0.2187004,0.1923981-0.4101028,0.3769989-0.5683022c0.1717987-0.142601,0.3827972-0.2441978,0.6092987-0.2851982
		c0.2451019-0.0547028,0.5048981-0.0351028,0.7509995,0.0546989c0.2608032,0.1035004,0.4922028,0.2753983,0.6903992,0.5136986
		l-0.621994,0.5c-0.260788-0.3163986-0.5274048-0.3163986-0.6709061-0.2890968
		c-0.1777954,0.0351982-0.3281937,0.1503983-0.369194,0.2929993c-0.0273056,0.0956993-0.0214996,0.2538986,0.1913986,0.4589996
		l0.8456955,0.8143997c0.1231003,0.1231003,0.2735062,0.267601,0.3838043,0.3691978
		c0.2177963,0.1992035,0.3682022,0.4238014,0.4424133,0.6640015C97.9403992,61.6234016,97.9462051,61.8694,97.8778992,62.1018982"/>
</g>
<polygon class="st1" points="101.9002991,58.7639999 100.5047989,58.762001 100.5009003,63.1234016 99.7010956,63.1234016 
	99.7060013,58.762001 98.3115005,58.7601013 98.3125,58.049099 101.9002991,58.0530014 "/>
<polygon class="st1" points="104.5692978,61.3987007 105.9072113,58.0569 106.7674942,58.0569 104.5868988,63.3538017 
	102.2695007,58.0530014 103.1445007,58.0530014 "/>
<polygon class="st1" points="112.3182983,63.1351013 110.3115005,60.8362007 110.3075943,63.1330986 109.5165939,63.1330986 
	109.5205002,58.0609016 110.3134003,58.0609016 110.3115005,60.1526985 111.9403992,58.0628014 112.9384003,58.0648003 
	111.0760956,60.5023003 113.309494,63.137001 "/>
<polygon class="st1" points="114.7743988,60.1311989 116.6268997,60.1330986 116.6268997,60.8498993 114.7723999,60.8479996 
	114.7723999,62.4221992 117.0205002,62.424099 117.0205002,63.1408997 114.764595,63.1389999 113.9775009,63.1389999 
	113.9833984,58.0648003 114.7705002,58.0667 117.0262985,58.0686989 117.0243988,58.7795982 114.777298,58.7776985 "/>
<g>
	<path class="st1" d="M119.4637985,60.7170982c0.3272018,0,0.5732956-0.0956993,0.7314987-0.2733994
		c0.1903992-0.2050972,0.2256012-0.4902992,0.2256012-0.6894989c0-0.205101-0.0333023-0.4921989-0.2246933-0.6973
		c-0.1582108-0.1777-0.4033051-0.2675018-0.7304077-0.2675018l-0.7109985-0.0019989l-0.0028992,1.9277992L119.4637985,60.7170982z
		 M121.5047989,63.146801l-0.8964005-0.0020027l-1.2753983-1.7186966h-0.5811005l-0.0028992,1.7167969l-0.7919998-0.0019989
		l0.0048981-5.0703011h0.669899l0.8339996,0.0020027c0.669899,0,1.0595016,0.2733994,1.2636032,0.5057983
		c0.2675934,0.295002,0.4101944,0.705101,0.4101944,1.1758003c-0.0019989,0.464901-0.1455002,0.875-0.4121017,1.169899
		c-0.1230927,0.1348-0.3153992,0.2929993-0.5878983,0.3887024L121.5047989,63.146801z"/>
</g>
<polygon class="st1" points="122.9227982,59.887001 122.9188995,63.146801 122.1259003,63.146801 122.1317978,57.8362007 
	125.3134003,61.3303986 125.3163986,58.0783997 126.1180954,58.0783997 126.1112976,63.3830986 "/>
<g>
	<path class="st1" d="M129.8563995,62.1351013c-0.1445007,0.4921989-0.5879059,0.8827972-1.1426086,0.9902
		c-0.1015015,0.0214996-0.2041016,0.0273972-0.3065796,0.0273972c-0.2051086,0-0.4102173-0.0332985-0.6016159-0.1093979
		c-0.3212967-0.1309013-0.6015015-0.3418007-0.839798-0.6504021l0.6288986-0.4921989
		c0.144516,0.1913986,0.3143997,0.330101,0.4990082,0.3964996c0.1513977,0.0625,0.3135071,0.0762024,0.464798,0.0429993
		c0.2587891-0.0488968,0.4717102-0.2187996,0.5331879-0.4238968c0.0694122-0.2324028-0.0887909-0.4375-0.2313995-0.5742035
		c-0.2256012-0.2128983-0.593689-0.5741997-0.6210785-0.6015968l-0.6211166-0.5898018
		c-0.1923981-0.1855011-0.322197-0.3905983-0.389595-0.607399c-0.0694046-0.2129021-0.0752029-0.4375-0.0127029-0.642601
		c0.0625-0.2187996,0.1914139-0.4101982,0.3759003-0.5684013c0.1718979-0.142498,0.3837967-0.2440987,0.6084061-0.285099
		c0.2481079-0.0546989,0.5058899-0.0331993,0.7519989,0.0546989c0.2597961,0.1035004,0.4921875,0.2734032,0.6903992,0.5136032
		l-0.6230011,0.4981003c-0.2588043-0.3145027-0.5263977-0.3145027-0.6699066-0.2871017
		c-0.1768036,0.0331993-0.3271942,0.1503983-0.369194,0.2929001c-0.0283051,0.0957985-0.0205002,0.2519989,0.1904984,0.4570999
		l0.8475952,0.8163986c0.1231079,0.1230011,0.273407,0.2656021,0.3818054,0.3691025
		c0.217804,0.1973,0.3692017,0.4239006,0.444397,0.6641006C129.9188995,61.6585007,129.9256897,61.9045982,129.8563995,62.1351013"
		/>
	<path class="st1" d="M63.9188995,33.9421997c-0.2714996,0.1708984-0.5566025,0.3281021-0.8554993,0.4561005
		c-0.6561928,0.2714005-1.3554001,0.4140015-2.0683022,0.4140015c-0.7128906,0-1.4101982-0.142601-2.0527992-0.4140015
		c-0.6416016-0.2705994-1.1972008-0.6553001-1.6826019-1.1397018c-0.4843979-0.4852982-0.8690987-1.0419998-1.1395988-1.6835976
		c-0.2714996-0.6416016-0.4141006-1.3397999-0.4141006-2.0527s0.142601-1.4120998,0.4141006-2.0674
		c0.2705002-0.6279011,0.655201-1.1973,1.1395988-1.6826c0.4854012-0.4843998,1.0410004-0.8701,1.6826019-1.1270008
		c0.642601-0.285099,1.3399086-0.4130993,2.0527992-0.4130993c0.7129021,0,1.4121094,0.1280003,2.0683022,0.4130993
		c0.0712967,0.0293007,0.1562996,0.0723,0.2265968,0.1005993v1.9531002c-0.6405983-0.5272999-1.4394989-0.8125-2.294899-0.8125
		c-0.9687996,0-1.8808899,0.3711014-2.5663986,1.0694008c-0.6836014,0.6844997-1.0694008,1.5967007-1.0694008,2.5664005
		s0.3857994,1.8817997,1.0694008,2.5663986c0.6855087,0.6846008,1.597599,1.0693016,2.5663986,1.0693016
		c0.9706993,0,1.8828011-0.3847008,2.5663986-1.0693016c0.1289024-0.1278992,0.2422028-0.2558994,0.3574028-0.3993988V33.9421997z"
		/>
</g>
<rect x="66.5125961" y="24.2322006" class="st1" width="1.6533999" height="10.5790997"/>
<polygon class="st1" points="72.7275009,28.0105991 72.7275009,34.8123016 71.0742111,34.8123016 71.0742111,23.7332001 
	77.7176971,31.0193005 77.7176971,24.2332001 79.3856964,24.2332001 79.3856964,35.2966995 "/>
<polygon class="st1" points="83.9618988,28.5379009 87.8250961,28.5379009 87.8250961,30.0349998 83.9618988,30.0349998 
	83.9618988,33.3152008 88.6532974,33.3152008 88.6532974,34.8123016 83.9482117,34.8123016 82.3084946,34.8123016 
	82.3084946,24.2332001 83.9482117,24.2332001 88.6532974,24.2332001 88.6532974,25.7147007 83.9618988,25.7147007 "/>
<polygon class="st1" points="99.6014938,34.8123016 99.6014938,29.1942005 96.2938995,34.1268005 92.9715958,29.1942005 
	92.9715958,34.8123016 91.3172989,34.8123016 91.3172989,23.7469006 96.2938995,31.1618996 101.2684937,23.7469006 
	101.2684937,34.8123016 "/>
<path class="st1" d="M109.3242111,31.0622997l-1.2832108-3.2217007l-1.2832031,3.2217007H109.3242111z M109.9227982,32.5457001
	h-3.7637024l-0.8983994,2.2666016h-1.8241959l4.6044998-11.0654011l4.589798,11.0654011h-1.8095932L109.9227982,32.5457001z"/>
<g>
	<path class="st1" d="M57.3934975,70.2287979v0.8163986l-3.6063995-0.0038986l0.4990005-0.6503983
		c0.9491997-1.2518997,1.3730011-1.8105011,1.9062004-2.5214996c0.152401-0.2089005,0.25-0.4160004,0.277401-0.5820007
		c0.0136986-0.125,0-0.2285004-0.0557022-0.3125c-0.1102982-0.1855011-0.3729973-0.2910004-0.6434975-0.25
		c-0.152401,0.0293045-0.2911034,0.0898972-0.4014015,0.1933975c-0.1240005,0.1191025-0.2216988,0.2851028-0.2705002,0.4844055
		l-0.7187996-0.4219055c0.0976982-0.2636948,0.25-0.4843979,0.443409-0.664093
		c0.2284889-0.2070007,0.5126915-0.3457031,0.824192-0.392601c0.5956993-0.0898056,1.1894989,0.1601944,1.4658089,0.6308975
		c0.1513901,0.2480011,0.2070885,0.5391006,0.1591911,0.8516006c-0.0430031,0.3026962-0.1884995,0.6288986-0.4297028,0.947197
		c-0.4374886,0.580101-0.7910004,1.0567017-1.4139977,1.8731003L57.3934975,70.2287979z"/>
</g>
<path class="st1" d="M60.3759003,69.3460007l0.0019989-1.2792969l-0.9570007,1.2792969H60.3759003z M60.3739967,71.0491028
	v-0.9004059l-2.5663986-0.0018997l3.375-4.5019989l-0.0059013,3.7032013h0.4854012l-0.0009995,0.8027039h-0.4844017v0.8983994
	H60.3739967z"/>
<g>
	<path class="st1" d="M62.8709984,71.0511017c-0.2705002,0-0.4833984-0.2149048-0.4833984-0.4843979
		c0-0.2637024,0.2148972-0.4844055,0.4843979-0.4844055c0.2637024,0.0019989,0.4844017,0.222702,0.4844017,0.4844055
		C63.3563995,70.8382034,63.1336975,71.0511017,62.8709984,71.0511017"/>
</g>
<polygon class="st1" points="65.6562119,71.7268982 67.1786957,65.3069 67.9813995,65.3088989 66.4589005,71.7268982 "/>
<g>
	<path class="st1" d="M73.6962051,70.2483978l-0.0019073,0.8163986l-3.6044998-0.0038986l0.4990005-0.6503983
		c0.9491959-1.2519989,1.3721008-1.8106003,1.9042969-2.5234985c0.1533051-0.2070007,0.25-0.4140015,0.2774048-0.580101
		c0.0155945-0.125,0.0018997-0.2304001-0.0538025-0.3125c-0.1112976-0.1875-0.3740005-0.2910004-0.643486-0.25
		c-0.1523132,0.0292969-0.2910004,0.0917969-0.401413,0.1953964c-0.1240005,0.1152039-0.2217026,0.2812042-0.2705002,0.4824066
		l-0.7186966-0.4219055c0.0956955-0.2636948,0.2489929-0.4843979,0.4432983-0.6641006
		c0.2285004-0.2069931,0.5116959-0.3456955,0.8241959-0.3944931c0.5948029-0.0879059,1.1894989,0.1620941,1.4649048,0.6327972
		c0.152298,0.2481003,0.2070007,0.5391006,0.1582108,0.8516006c-0.0410004,0.3026962-0.1865158,0.6288986-0.4297104,0.9452972
		c-0.4375,0.5820007-0.7900009,1.0586014-1.4131012,1.875L73.6962051,70.2483978z"/>
	<path class="st1" d="M76.0663986,71.0667038c-0.524498-0.0215073-1.0791016-0.2285004-1.6377029-0.6172028l0.4511032-0.6640015
		c0.4346008,0.2987976,0.8554993,0.464798,1.222702,0.4785004c0.2831955,0.0137024,0.5331955-0.0606003,0.7187042-0.2188034
		c0.146492-0.1190948,0.25-0.2850952,0.2988892-0.464798c0.0410004-0.1796951,0.0351181-0.3593979-0.0331955-0.5195007
		c-0.0909042-0.1933975-0.2636871-0.3516006-0.5058975-0.449295c-0.3242035-0.1386032-0.7666016-0.1679001-1.2793045-0.0976028
		l-0.5194855,0.0742035L75.1170959,65.9319l2.4493027,0.0019989v0.7968979l-1.7441864-0.0019989l-0.1181107,0.9473038
		c0.4501038-0.0117035,0.8436966,0.0565948,1.1815948,0.1952972c0.4365158,0.1816025,0.7617035,0.4785004,0.9277039,0.8652039
		c0.2901001,0.6581955,0.0948105,1.4531937-0.4804001,1.9238968c-0.3243027,0.2695007-0.7256012,0.4082031-1.1767883,0.4062042
		H76.0663986z"/>
	<path class="st1" d="M79.2625961,71.0706024c-0.2695007,0-0.4842987-0.2148056-0.4833908-0.4844055
		c0-0.2635956,0.215889-0.4842987,0.4853897-0.4842987c0.2617035,0,0.4844055,0.2226028,0.4844055,0.4842987
		C79.7470016,70.8557968,79.5252991,71.0706024,79.2625961,71.0706024"/>
</g>
<polygon class="st1" points="83.5692978,67.7757034 83.5653992,71.0764999 82.7625961,71.074501 82.7705002,65.699501 
	85.989212,69.2386017 85.9930954,65.9437027 86.8026962,65.9456024 86.7967987,71.3147964 "/>
<g>
	<path class="st1" d="M89.0282974,67.2697983c-0.3320923,0.330101-0.5195999,0.7734985-0.5205002,1.2442017
		c0,0.4707031,0.1865005,0.9140015,0.5185013,1.2461014c0.3320999,0.3320007,0.7734985,0.5195007,1.2442017,0.5195007
		c0.4707108,0,0.9139938-0.1855011,1.2460938-0.517601c0.3320007-0.3320007,0.5195007-0.7753983,0.5195007-1.2441025
		c0.0009995-0.4706955-0.1856003-0.9141006-0.5175934-1.2461014c-0.330101-0.3320007-0.773407-0.5195007-1.2441025-0.5195007
		C89.8036957,66.7522964,89.3602982,66.9377975,89.0282974,67.2697983 M89.2743988,70.8812027
		c-0.3125-0.1309052-0.5820999-0.3203049-0.8163986-0.5547028c-0.2344055-0.2362976-0.4219055-0.5058975-0.5527878-0.8163986
		c-0.1308136-0.3125-0.2002182-0.6503983-0.2002182-0.9961014c0.0010071-0.3457031,0.0694046-0.6856003,0.2022171-1.0038986
		c0.1317902-0.3047028,0.3202896-0.5742035,0.5546875-0.8163986c0.2343063-0.2344055,0.5047989-0.4141006,0.8163986-0.5450058
		c0.3115005-0.1307983,0.6503983-0.2010956,0.9980011-0.1991959c0.344696,0,0.6836014,0.0702972,1.0019989,0.2012024
		c0.3047028,0.1308975,0.5742035,0.3125,0.8163986,0.5468979c0.2343979,0.2421951,0.4140015,0.5135956,0.544899,0.8163986
		c0.1309052,0.3202972,0.1992035,0.6582031,0.1992035,1.0038986c0,0.3457031-0.0702972,0.6855011-0.2012024,0.9961014
		c-0.1317978,0.3125-0.3125,0.5820007-0.5467987,0.8163986c-0.2422028,0.2343979-0.5137024,0.4218979-0.8183975,0.5527039
		c-0.3174057,0.1308975-0.656189,0.1991959-1.0038986,0.1991959C89.9227982,71.0822983,89.5839005,71.0139999,89.2743988,70.8812027
		"/>
</g>
<polygon class="st1" points="95.114212,69.3382034 96.4657974,65.9553986 97.3387985,65.9553986 95.1317978,71.3167038 
	92.7850952,65.9514999 93.6708984,65.9533997 "/>
<g>
	<path class="st1" d="M103.4002991,70.2796021v0.8183975l-3.6044006-0.0038986l0.4980011-0.6503983
		c0.9491959-1.2519989,1.3711014-1.8106003,1.9061966-2.5235062c0.1524048-0.2069931,0.2481155-0.4159927,0.2774048-0.5819931
		c0.01371-0.1230011,0-0.2285004-0.0566025-0.3105011c-0.1093979-0.1875-0.3731003-0.2910995-0.642601-0.25
		c-0.1523972,0.027298-0.2900925,0.089798-0.4003983,0.1932983c-0.125,0.1172028-0.2226868,0.2832031-0.2705002,0.4843979
		l-0.7198029-0.4237976c0.097702-0.2618027,0.2490997-0.4824982,0.4433975-0.6641006
		c0.2285004-0.2070007,0.5117035-0.3457031,0.8242188-0.392601c0.5956879-0.0878983,1.1904831,0.160202,1.4667816,0.6308975
		c0.1504059,0.25,0.205101,0.5410004,0.1572113,0.8515015c-0.0419083,0.3047028-0.1865082,0.6288986-0.4296112,0.9473038
		c-0.4365997,0.5820007-0.7901001,1.0586014-1.4130936,1.8731003L103.4002991,70.2796021z"/>
	<path class="st1" d="M105.1679001,67.2581024c-0.2080002,0.3183975-0.3330002,0.7831955-0.3339996,1.2655945
		c0,0.4844055,0.125,0.9493027,0.3311005,1.2754059c0.214798,0.324295,0.5038986,0.4981003,0.857399,0.4981003
		c0.3466949,0,0.6231003-0.1660004,0.830101-0.490303c0.2089996-0.3182983,0.3261948-0.7811966,0.3261948-1.2656021
		c0.0018997-0.4843979-0.1152954-0.9491959-0.3222961-1.2733994c-0.2148056-0.3320007-0.4980011-0.5-0.8438034-0.5
		C105.6590958,66.7678986,105.3759003,66.9338989,105.1679001,67.2581024 M105.121994,70.8557968
		c-0.2479935-0.1445999-0.4559937-0.3593979-0.6278992-0.6231003c-0.2978897-0.4569931-0.462883-1.0643997-0.4618835-1.7089996
		c0-0.6424942,0.1669998-1.2518997,0.4580002-1.7089005c0.1727829-0.2558975,0.3807831-0.4628983,0.6229935-0.6074982
		c0.2704926-0.1660004,0.5751953-0.2420959,0.8993912-0.2401962c0.3262024,0,0.6308975,0.0761948,0.8926163,0.2421951
		c0.25,0.1445007,0.4570847,0.3535004,0.6220856,0.6230011c0.2977982,0.4570999,0.4629135,1.0663986,0.4629135,1.7089996
		c-0.0020065,0.6445999-0.1690063,1.2461014-0.4589996,1.7031021c-0.1669998,0.2618027-0.3740005,0.4688034-0.617218,0.6132965
		c-0.2705002,0.160202-0.5673981,0.2422028-0.8934937,0.2422028
		C105.6962051,71.0998993,105.3915939,71.0158997,105.121994,70.8557968"/>
</g>
<polygon class="st1" points="109.4872971,71.1037979 109.4912109,67.5667038 108.8544006,68.0451965 108.3778992,67.4007034 
	110.2958984,65.9710007 110.2900009,71.1037979 "/>
<polygon class="st1" points="111.2938995,71.1057968 113.2900009,66.7757034 111.3115005,66.7736969 111.3125,65.9710007 
	114.5497971,65.9748993 112.1786957,71.1057968 "/>
<rect x="81.214798" y="16.6483002" class="st1" width="4.7772999" height="3.3857"/>
<rect x="86.2254944" y="17.7068005" class="st1" width="0.4454" height="1.2696"/>
<polygon class="st1" points="86.9042053,17.7059002 88.3330002,17.0905991 88.3330002,19.5233002 86.9042053,18.9764004 "/>
<g>
	<path class="st1" d="M82.1162109,13.3972998c-0.8028107,0-1.4551163,0.6504002-1.4551163,1.4541006
		c0,0.7958994,0.6416016,1.4424,1.4355011,1.4540997h0.0196152h2.9588852v-0.0009995
		C85.0868988,16.3055,85.0965958,16.3055,85.1083984,16.3055c0.8026962,0,1.4531021-0.6513996,1.4531021-1.4540997
		c0-0.8037004-0.6504059-1.4541006-1.4531021-1.4541006c-0.722702,0-1.3223038,0.5263004-1.4346008,1.2187004
		c-0.0038986,0.0214996-0.006897,0.2129002-0.0108032,0.2354002h-0.1034927
		c-0.0019073-0.0195999-0.0049057-0.2080002-0.0078049-0.2276001
		C83.4422989,13.9294996,82.8416977,13.3972998,82.1162109,13.3972998"/>
	<path class="st1" d="M80.0292053,17.0564995c-0.0468063,0.0009003-0.0869064,0.0370998-0.0927048,0.0848999l-0.0957031,0.7783012
		c-0.0058975,0.0527992,0.0312042,0.0995998,0.0839996,0.1064987l1.0566025,0.1299v-0.9833984l-0.9384995-0.1153011
		C80.0390015,17.0564995,80.0340958,17.0564995,80.0292053,17.0564995"/>
</g>
</svg>
