<svg id="Ebene_1" xmlns="http://www.w3.org/2000/svg" viewBox="0 0 168.3377991 85.9319"><style>.st0{fill:#04080d}.st1{fill:#fff}</style><path class="st0" d="M84.169 83.127l81.363-7.398V21.885L84.17 2.805 2.806 21.885v53.844z"/><path class="st1" d="M5.61 73.11l78.559 7.205 78.558-7.205v-49L84.17 5.686 5.61 24.11v49zm78.56 12.822c-.065 0-.129-.002-.194-.006L2.612 78.528A2.804 2.804 0 0 1 0 75.728V21.887c0-1.303.897-2.435 2.166-2.733L83.528.074c.422-.099.86-.099 1.282 0l81.362 19.08a2.808 2.808 0 0 1 2.166 2.732v53.843a2.805 2.805 0 0 1-2.613 2.799l-81.363 7.398a3.205 3.205 0 0 1-.193.006"/><path class="st1" d="M25.868 46.252c0-1.302-.36-2.384-1.03-3.123-.755-.84-1.87-1.252-3.346-1.252h-1.03v8.754h1.03c1.476 0 2.592-.43 3.347-1.254.67-.738 1.03-1.836 1.03-3.125m1.99 0c0 1.803-.53 3.348-1.544 4.465a5.203 5.203 0 0 1-2.043 1.406c-.822.327-1.75.498-2.779.498h-3.021V39.887h3.02c1.029 0 1.956.153 2.779.497a5.19 5.19 0 0 1 2.042 1.407c1.014 1.115 1.545 2.66 1.545 4.461m6.713-3.09a4.353 4.353 0 0 0 0 6.18 4.343 4.343 0 0 0 3.09 1.285 4.35 4.35 0 0 0 3.09-1.287 4.348 4.348 0 0 0 1.285-3.09 4.345 4.345 0 0 0-1.287-3.088 4.35 4.35 0 0 0-6.178 0m.62 8.96a6.351 6.351 0 0 1-2.026-1.372 6.312 6.312 0 0 1-1.871-4.498c0-.86.17-1.699.498-2.49a6.705 6.705 0 0 1 1.371-2.024 6.363 6.363 0 0 1 4.496-1.854c.858 0 1.7.171 2.49.498a6.62 6.62 0 0 1 2.025 1.355c.584.6 1.03 1.27 1.356 2.025.326.79.498 1.63.498 2.488 0 .86-.172 1.7-.498 2.473a6.288 6.288 0 0 1-1.354 2.025 6.719 6.719 0 0 1-2.025 1.373 6.52 6.52 0 0 1-2.49.498 6.35 6.35 0 0 1-2.47-.498m18.863-2.062c-.362 1.236-1.477 2.215-2.866 2.49a4.03 4.03 0 0 1-.772.069 4.155 4.155 0 0 1-1.51-.274c-.808-.326-1.51-.86-2.112-1.63l1.578-1.237c.361.48.79.824 1.254.996.377.154.79.187 1.167.103.651-.12 1.183-.55 1.339-1.066.17-.584-.225-1.098-.585-1.441a123.256 123.256 0 0 1-1.562-1.51l-1.561-1.477c-.482-.463-.808-.978-.98-1.527a2.731 2.731 0 0 1-.033-1.613c.154-.55.48-1.03.943-1.425.428-.36.961-.619 1.527-.72a3.406 3.406 0 0 1 1.89.136c.65.257 1.235.687 1.732 1.288l-1.56 1.252c-.653-.789-1.323-.789-1.683-.72-.447.086-.823.378-.927.739-.068.24-.05.635.48 1.149l2.13 2.043c.308.309.686.668.96.926.55.498.926 1.064 1.115 1.664.189.584.207 1.2.036 1.785m10.384 0c-.36 1.234-1.476 2.213-2.865 2.488a3.838 3.838 0 0 1-.773.069c-.515 0-1.03-.086-1.51-.274-.807-.326-1.51-.857-2.111-1.63l1.578-1.235c.361.478.79.822 1.254.994.377.154.789.19 1.168.104.651-.122 1.183-.551 1.338-1.065.17-.584-.225-1.1-.584-1.443a111.833 111.833 0 0 1-1.563-1.51l-1.562-1.475c-.48-.464-.805-.978-.978-1.527a2.728 2.728 0 0 1-.034-1.614c.154-.55.48-1.03.944-1.425a3.31 3.31 0 0 1 1.527-.721 3.375 3.375 0 0 1 1.888.137c.653.257 1.235.686 1.733 1.288l-1.56 1.252c-.653-.789-1.323-.789-1.685-.721-.445.086-.822.378-.925.738-.069.241-.052.636.48 1.152l2.13 2.04c.308.31.687.67.96.927.549.498.928 1.064 1.116 1.666.189.582.206 1.2.034 1.785m5.768-4.996h4.651v1.8l-4.651.003.002 3.947h5.645v1.8l-5.663.003h-1.974l-.002-12.736 1.974-.001h5.664v1.785h-5.646zm11.706-.637l.001 8.188h-1.991l-.001-13.337 7.999 8.77-.002-8.17 2.008-.001.002 13.32zm21.456 8.184h-1.991v-5.492l-5.081.001v5.493h-1.99l-.001-12.736h1.99v5.44l5.082-.001-.002-5.44h1.991zm10.557-4.516l-1.545-3.879-1.545 3.88h3.09zm.72 1.785h-4.53l-1.08 2.73h-2.198l5.543-13.32 5.526 13.32h-2.18l-1.08-2.73zm13.921 2.729h-7.311l-.002-12.736h1.99l.002 10.933h5.32zm10.488-.002h-7.311l-.002-12.735h1.99l.001 10.932h5.322zm5.166-7.553h4.651v1.8h-4.651v3.95h5.647v1.8h-7.638l-.002-12.734h1.975l5.664-.001v1.785h-5.646zM42.021 58.698l-1.393-.002-.006 4.36h-.799l.004-4.36-1.394-.002v-.711l3.59.004zm1.302 3.959a1.47 1.47 0 0 1-.451-.547 1.709 1.709 0 0 1-.17-.774l.004-3.347h.793l-.004 3.35c0 .3.11.532.313.69.192.151.472.24.773.24.294 0 .574-.087.771-.24.207-.156.31-.388.31-.689l.004-3.35.8.003-.004 3.347c0 .281-.063.541-.172.774a1.69 1.69 0 0 1-.451.546 2.069 2.069 0 0 1-1.259.403c-.478-.002-.923-.147-1.257-.406m5.654-2.017c.329 0 .575-.095.733-.272.19-.206.224-.493.224-.692 0-.205-.033-.492-.224-.697-.156-.178-.402-.266-.73-.266l-.712-.002-.001 1.928.71.002zm2.041 2.429h-.896l-1.275-1.72h-.581l-.003 1.718-.791-.002.004-5.072h.67l.833.001c.67.002 1.059.276 1.264.508.268.295.41.703.41 1.176 0 .465-.144.875-.412 1.168a1.402 1.402 0 0 1-.588.389l1.365 1.834zm1.419-3.26l-.004 3.262h-.793l.006-5.313 3.181 3.496L54.83 58l.802.002-.005 5.305zm5.043.26l1.853.002v.716l-1.853-.002-.003 1.573 2.248.004v.716l-2.255-.002-.787-.001.006-5.073.785.002 2.257.002v.711l-2.249-.002zm4.689.586c.328 0 .572-.096.73-.274.193-.205.227-.49.227-.69 0-.204-.034-.491-.225-.697-.156-.177-.402-.267-.73-.267l-.711-.002-.002 1.93h.71zm2.04 2.427h-.896l-1.275-1.716-.581-.002-.003 1.716h-.791l.005-5.074.67.002h.833c.67.002 1.058.276 1.263.508.266.295.41.705.41 1.176 0 .465-.144.875-.411 1.17a1.436 1.436 0 0 1-.59.388l1.366 1.832zm3.194-1.792l-.614-1.546-.617 1.543 1.231.002zm.285.71l-1.804-.002-.43 1.086h-.877l2.214-5.302 2.196 5.306h-.869L67.688 62zm2.799-3.271l-.002 1.537c.159-.033.342-.088.522-.162.252-.104.451-.219.588-.356.142-.136.21-.28.21-.445 0-.244-.087-.34-.163-.394-.19-.145-.559-.178-.826-.18h-.329zm1.637 2.86a.85.85 0 0 0-.265-.651 1.264 1.264 0 0 0-.39-.252c-.068.027-.136.06-.21.088-.281.115-.56.183-.774.232l-.002 1.365.327.002c.433 0 .78-.076 1.007-.218a.617.617 0 0 0 .307-.567m.71 0c0 .254-.053.479-.163.684-.11.191-.267.355-.466.484-.348.219-.82.334-1.395.334h-.45l-.67-.002.005-5.07h1.121c.562.002.971.103 1.258.316.157.117.273.268.349.438.067.156.101.336.101.533 0 .273-.09.61-.398.93.082.054.157.117.232.183.15.153.268.317.348.5.09.205.13.43.129.67m1.67-1.502l1.852.002v.719l-1.852-.002-.002 1.572 2.248.002v.717l-2.256-.002h-.787l.006-5.072h.787l2.256.002-.002.713-2.248-.004zm3.978-.248L78.48 63.1l-.792-.002.006-5.313 3.182 3.499.003-3.254h.8l-.005 5.304zm7.196.732c.002-.519-.142-.949-.408-1.244-.301-.335-.746-.5-1.333-.5h-.41l-.004 3.485h.41c.588.002 1.034-.168 1.333-.496.268-.295.412-.733.412-1.244m.793.002c0 .716-.213 1.332-.616 1.775-.22.246-.493.437-.814.56a3.007 3.007 0 0 1-1.107.196h-1.206l.007-5.072h.793l.41.002c.41 0 .779.06 1.107.199.321.123.596.314.813.56.404.446.615 1.06.613 1.78"/><path transform="rotate(-89.917 90.74 60.576)" class="st1" d="M90.399 59.233h.684v2.686h-.684z"/><path class="st1" d="M97.878 62.102c-.145.492-.59.88-1.143.99a1.64 1.64 0 0 1-.307.027c-.205 0-.41-.035-.603-.11-.32-.13-.6-.343-.84-.651l.63-.49c.144.19.315.326.5.396.149.06.314.076.464.041.26-.047.47-.217.533-.422.069-.234-.088-.44-.231-.576a34.218 34.218 0 0 1-.622-.602l-.621-.59a1.434 1.434 0 0 1-.389-.607 1.094 1.094 0 0 1-.014-.642c.063-.22.193-.41.377-.569.172-.142.383-.244.61-.285.245-.055.504-.035.75.055.261.103.493.275.691.513l-.622.5c-.26-.316-.527-.316-.67-.289-.179.035-.33.15-.37.293-.027.096-.022.254.191.46l.846.814c.123.123.274.267.384.369.218.2.368.424.442.664.076.232.082.478.014.71m4.022-3.337l-1.395-.002-.004 4.361h-.8l.005-4.361-1.394-.002v-.71l3.588.003zm2.67 2.635l1.337-3.342h.86l-2.18 5.297-2.317-5.301h.875zm7.748 1.736l-2.006-2.299-.004 2.297h-.791l.004-5.072h.792l-.001 2.092 1.628-2.09.998.002-1.862 2.437 2.233 2.635zm2.456-3.004l1.853.002v.717l-1.855-.002v1.574l2.249.002v.717l-2.256-.002h-.787l.005-5.074.788.002 2.255.002-.002.71-2.247-.001zm4.69.586c.327 0 .573-.096.731-.273.19-.205.226-.49.226-.69 0-.205-.033-.492-.225-.697-.158-.178-.403-.268-.73-.268l-.711-.002-.003 1.928.712.002zm2.04 2.43l-.896-.002-1.275-1.719h-.581l-.003 1.717-.792-.002.005-5.07h.67l.834.002c.67 0 1.06.273 1.263.505.268.295.41.706.41 1.176-.001.465-.145.875-.412 1.17a1.444 1.444 0 0 1-.587.389l1.365 1.834zm1.419-3.26l-.004 3.26h-.793l.006-5.31 3.181 3.493.003-3.252h.802l-.007 5.305zm6.933 2.248c-.144.492-.588.883-1.142.99a1.473 1.473 0 0 1-.307.028c-.205 0-.41-.034-.601-.11a2 2 0 0 1-.84-.65l.629-.492c.144.191.314.33.499.396a.78.78 0 0 0 .465.043c.258-.049.471-.219.533-.424.07-.232-.09-.437-.232-.574a50.475 50.475 0 0 1-.62-.601l-.622-.59a1.442 1.442 0 0 1-.39-.608 1.07 1.07 0 0 1-.012-.642 1.17 1.17 0 0 1 .376-.569 1.34 1.34 0 0 1 .608-.285c.248-.054.506-.033.752.055.26.103.492.273.69.514l-.622.498c-.26-.315-.527-.315-.67-.288-.177.034-.328.15-.37.293-.028.096-.02.252.19.457l.848.817c.124.123.274.266.382.369.218.197.37.424.445.664.074.233.08.479.011.71M63.919 33.942a6.2 6.2 0 0 1-.856.456 5.401 5.401 0 0 1-2.068.414 5.252 5.252 0 0 1-3.735-1.554 5.254 5.254 0 0 1-1.554-3.736c0-.713.143-1.412.414-2.067a5.403 5.403 0 0 1 1.14-1.683 5.006 5.006 0 0 1 1.682-1.127 5.037 5.037 0 0 1 2.053-.413c.713 0 1.412.128 2.068.413.072.03.157.073.227.1V26.7a3.58 3.58 0 0 0-2.295-.813 3.56 3.56 0 0 0-2.566 1.07c-.684.684-1.07 1.597-1.07 2.566s.386 1.882 1.07 2.567a3.617 3.617 0 0 0 5.132 0 4.4 4.4 0 0 0 .358-.4v2.253zm2.594-9.71h1.653v10.579h-1.653zm6.215 3.778v6.802h-1.654V23.733l6.644 7.286v-6.786h1.668v11.064zm11.234.528h3.863v1.497h-3.863v3.28h4.691v1.497h-6.345V24.233h6.345v1.482h-4.691zm15.639 6.274v-5.618l-3.307 4.933-3.322-4.933v5.618h-1.655V23.747l4.977 7.415 4.974-7.415v11.065zm9.723-3.75l-1.283-3.221-1.283 3.221h2.566zm.599 1.484h-3.764l-.898 2.266h-1.824l4.604-11.065 4.59 11.065h-1.81l-.898-2.266zm-52.53 37.683v.816l-3.606-.004.5-.65c.948-1.252 1.372-1.81 1.905-2.522.153-.209.25-.416.278-.582a.457.457 0 0 0-.056-.312c-.11-.186-.373-.291-.643-.25a.793.793 0 0 0-.402.193.997.997 0 0 0-.27.485l-.72-.422c.098-.264.25-.485.444-.664a1.58 1.58 0 0 1 .824-.393c.596-.09 1.19.16 1.466.631.152.248.207.54.16.852-.044.302-.19.628-.43.947-.438.58-.791 1.056-1.414 1.873l1.964.002zm2.983-.883l.002-1.28-.957 1.28h.955zm-.002 1.703v-.9l-2.566-.002 3.375-4.502-.006 3.703h.485v.803h-.485v.898h-.803zm2.497.002a.486.486 0 0 1 .001-.969.492.492 0 0 1 .484.485.486.486 0 0 1-.485.484m2.785.676l1.523-6.42.802.002-1.522 6.418zm8.04-1.479l-.002.817-3.604-.004.499-.65a390.791 390.791 0 0 0 1.904-2.524c.153-.207.25-.414.278-.58a.454.454 0 0 0-.054-.313c-.112-.187-.374-.29-.644-.25a.796.796 0 0 0-.401.196.965.965 0 0 0-.27.482l-.72-.422a1.69 1.69 0 0 1 .444-.664c.228-.207.512-.345.824-.394.595-.088 1.19.162 1.465.633.152.248.207.539.158.851-.04.303-.186.629-.43.945-.437.582-.79 1.059-1.413 1.875l1.966.002zm2.37.819c-.524-.022-1.079-.229-1.637-.617l.45-.665c.435.3.856.465 1.224.479.283.014.533-.06.718-.219a.908.908 0 0 0 .3-.465.84.84 0 0 0-.034-.52.917.917 0 0 0-.506-.448c-.324-.139-.767-.168-1.28-.098l-.519.074.335-2.656 2.45.002v.797l-1.745-.002-.118.947a2.9 2.9 0 0 1 1.182.195c.436.182.761.479.927.866.29.658.095 1.453-.48 1.923-.324.27-.726.409-1.177.407h-.09zm3.197.003a.48.48 0 0 1-.484-.484c0-.263.216-.484.486-.484.261 0 .484.223.484.484a.49.49 0 0 1-.486.485m4.307-3.295l-.005 3.3-.802-.001.008-5.375 3.218 3.539.004-3.295.81.002-.006 5.369zm5.458-.506a1.753 1.753 0 0 0-.002 2.49 1.752 1.752 0 0 0 2.49.002 1.755 1.755 0 0 0 .003-2.49 1.754 1.754 0 0 0-2.49-.002m.245 3.611a2.53 2.53 0 0 1-.816-.555 2.569 2.569 0 0 1-.553-.816 2.578 2.578 0 0 1 .002-2c.132-.305.32-.574.555-.816.234-.235.505-.414.816-.545.312-.131.65-.201.998-.2.345 0 .684.07 1.002.202.305.13.575.312.817.547.234.242.414.513.545.816.13.32.199.658.199 1.004a2.57 2.57 0 0 1-1.567 2.365 2.62 2.62 0 0 1-1.003.2c-.346 0-.685-.069-.995-.202m5.84-1.543l1.352-3.383h.873l-2.207 5.362-2.347-5.366.886.002zm8.286.942v.818l-3.604-.004.498-.65c.95-1.252 1.371-1.81 1.906-2.524.153-.207.248-.416.278-.582.013-.123 0-.228-.057-.31-.11-.188-.373-.291-.643-.25a.774.774 0 0 0-.4.193.965.965 0 0 0-.27.484l-.72-.423c.097-.262.249-.483.443-.664.228-.208.512-.346.824-.393.596-.088 1.19.16 1.467.63.15.25.205.542.157.852-.042.305-.186.63-.43.948-.436.582-.79 1.058-1.412 1.873l1.963.002zm1.768-3.022c-.208.318-.333.783-.334 1.266 0 .484.125.949.331 1.275.215.324.504.498.857.498.347 0 .624-.166.83-.49.21-.318.327-.781.327-1.266.002-.484-.116-.949-.323-1.273-.214-.332-.498-.5-.843-.5-.354 0-.637.166-.845.49m-.046 3.598a1.913 1.913 0 0 1-.628-.623c-.298-.457-.463-1.065-.462-1.71 0-.642.167-1.251.458-1.708.173-.256.381-.463.623-.608.27-.166.575-.242.9-.24.326 0 .63.076.892.242.25.145.457.354.622.623.298.457.463 1.067.463 1.71-.002.644-.169 1.245-.459 1.702a1.868 1.868 0 0 1-.617.614 1.72 1.72 0 0 1-.893.242c-.325 0-.63-.084-.899-.244m4.365.248l.004-3.537-.637.478-.476-.644 1.918-1.43-.006 5.133zm1.807.002l1.996-4.33-1.978-.002v-.803l3.238.004-2.371 5.13zM81.215 16.648h4.777v3.386h-4.777zm5.01 1.059h.445v1.27h-.445zm.679-.001l1.429-.615v2.432l-1.429-.547zm-4.788-4.309a1.455 1.455 0 0 0-.02 2.909h2.98v-.001a1.454 1.454 0 1 0-1.401-1.689c-.005.021-.008.213-.012.235h-.103c-.002-.02-.005-.208-.008-.227a1.454 1.454 0 0 0-1.436-1.227m-2.086 3.659a.096.096 0 0 0-.093.085l-.096.779c-.006.052.031.1.084.106l1.056.13v-.983l-.938-.116h-.014"/></svg>