<svg id="Ebene_1" xmlns="http://www.w3.org/2000/svg" viewBox="0 0 168.3377991 85.9310989"><style>.st0{fill:#fff}</style><path d="M84.169 83.127l81.363-7.399V21.884L84.17 2.804 2.806 21.885v53.844z"/><path class="st0" d="M5.61 73.109l78.559 7.205 78.558-7.205v-49L84.17 5.686 5.61 24.108v49zM84.17 85.93c-.065 0-.129-.002-.194-.006L2.612 78.527A2.804 2.804 0 0 1 0 75.728V21.885c0-1.303.897-2.435 2.166-2.733L83.528.073c.422-.098.86-.098 1.282 0l81.362 19.08a2.808 2.808 0 0 1 2.166 2.732v53.843c0 1.475-1.142 2.7-2.613 2.799l-81.363 7.398a3.203 3.203 0 0 1-.193.006"/><path class="st0" d="M25.868 46.251c0-1.302-.36-2.384-1.03-3.123-.755-.84-1.87-1.252-3.346-1.252h-1.03v8.754h1.03c1.476 0 2.592-.43 3.347-1.254.67-.738 1.03-1.835 1.03-3.125m1.99 0c0 1.803-.53 3.348-1.544 4.465a5.203 5.203 0 0 1-2.043 1.407c-.822.326-1.75.498-2.779.498h-3.021V39.886h3.02c1.029 0 1.956.153 2.779.497a5.19 5.19 0 0 1 2.042 1.407c1.014 1.115 1.545 2.66 1.545 4.461m6.713-3.089a4.353 4.353 0 0 0 0 6.18 4.343 4.343 0 0 0 3.09 1.284 4.35 4.35 0 0 0 3.09-1.287 4.348 4.348 0 0 0 1.285-3.09 4.345 4.345 0 0 0-1.287-3.087 4.35 4.35 0 0 0-6.178 0m.62 8.959a6.351 6.351 0 0 1-2.026-1.371 6.312 6.312 0 0 1-1.871-4.499c0-.859.17-1.699.498-2.49a6.705 6.705 0 0 1 1.371-2.024 6.362 6.362 0 0 1 4.496-1.854c.858 0 1.7.172 2.49.498a6.62 6.62 0 0 1 2.025 1.355c.584.6 1.03 1.27 1.356 2.025.326.79.498 1.631.498 2.489a6.36 6.36 0 0 1-.498 2.472 6.288 6.288 0 0 1-1.354 2.026 6.719 6.719 0 0 1-2.025 1.373 6.52 6.52 0 0 1-2.49.498 6.35 6.35 0 0 1-2.47-.498m18.863-2.063c-.362 1.236-1.477 2.215-2.866 2.49a3.952 3.952 0 0 1-.772.069 4.155 4.155 0 0 1-1.51-.274c-.808-.326-1.51-.86-2.112-1.63l1.578-1.237c.361.48.79.824 1.254.996.377.154.79.188 1.167.104.651-.121 1.183-.551 1.339-1.067.17-.584-.225-1.097-.585-1.441a123.312 123.312 0 0 1-1.562-1.51l-1.561-1.476c-.482-.463-.808-.979-.98-1.528a2.731 2.731 0 0 1-.033-1.613c.154-.55.48-1.029.943-1.424.428-.36.961-.62 1.527-.721a3.406 3.406 0 0 1 1.89.137c.65.256 1.235.686 1.732 1.287l-1.56 1.253c-.653-.79-1.323-.79-1.683-.721-.447.086-.823.378-.927.74-.068.238-.05.634.48 1.148l2.13 2.043c.308.309.686.668.96.926.55.498.926 1.064 1.115 1.664a3.02 3.02 0 0 1 .036 1.785m10.384 0c-.36 1.234-1.476 2.213-2.865 2.488a3.837 3.837 0 0 1-.773.069c-.515 0-1.03-.086-1.51-.274-.807-.326-1.51-.857-2.111-1.63l1.578-1.235c.361.479.79.822 1.254.994.377.155.789.19 1.168.104.651-.121 1.183-.551 1.338-1.065.17-.584-.225-1.1-.584-1.443a111.7 111.7 0 0 1-1.563-1.51l-1.562-1.474c-.48-.465-.805-.979-.978-1.528a2.728 2.728 0 0 1-.034-1.614c.154-.55.48-1.03.944-1.424a3.31 3.31 0 0 1 1.527-.722 3.375 3.375 0 0 1 1.888.138c.653.256 1.235.685 1.733 1.287l-1.56 1.253c-.653-.79-1.323-.79-1.685-.722-.445.086-.822.378-.925.738-.069.241-.052.637.48 1.152l2.13 2.041c.308.309.687.67.96.926.549.498.928 1.064 1.116 1.666.189.582.206 1.201.034 1.785m5.768-4.996h4.651v1.8l-4.651.003.002 3.947h5.645v1.8l-5.663.003h-1.974l-.002-12.736 1.974-.001h5.664v1.785l-5.646.001zm11.706-.637l.001 8.188h-1.991l-.001-13.337 7.999 8.77-.002-8.17 2.008-.001.002 13.32zm21.456 8.184h-1.991v-5.492l-5.081.002v5.492h-1.99l-.001-12.736h1.99v5.44l5.082-.001-.002-5.44h1.991zm10.557-4.516l-1.545-3.879-1.545 3.88h3.09zm.72 1.785h-4.53l-1.08 2.73h-2.198l5.543-13.319 5.526 13.32h-2.18l-1.08-2.73zm13.921 2.729h-7.311l-.002-12.736h1.99l.002 10.933h5.32zm10.488-.002h-7.311l-.002-12.735h1.99l.001 10.932h5.322zm5.166-7.553h4.651v1.801h-4.651v3.95h5.647v1.8h-7.638l-.002-12.735h7.639v1.784h-5.646zM42.021 58.697l-1.393-.002-.006 4.361h-.799l.004-4.361-1.394-.002v-.711l3.59.004zm1.302 3.959a1.47 1.47 0 0 1-.451-.547 1.709 1.709 0 0 1-.17-.774l.004-3.347h.793l-.004 3.35c0 .3.11.533.313.69.192.151.472.241.773.241.294 0 .574-.088.771-.24.207-.156.31-.389.31-.69l.004-3.35.8.003-.004 3.347c0 .282-.063.541-.172.774a1.69 1.69 0 0 1-.451.547 2.069 2.069 0 0 1-1.259.402c-.478-.002-.923-.146-1.257-.406m5.654-2.016c.329 0 .575-.096.733-.273.19-.205.224-.492.224-.692 0-.205-.033-.492-.224-.697-.156-.178-.402-.266-.73-.266l-.712-.002-.001 1.928.71.002zm2.041 2.428h-.896l-1.275-1.719h-.581l-.003 1.717-.791-.002.004-5.072h.67l.833.002c.67.002 1.059.275 1.264.507.268.295.41.704.41 1.176 0 .465-.144.875-.412 1.168a1.401 1.401 0 0 1-.588.389l1.365 1.834zm1.419-3.26l-.004 3.262h-.793l.006-5.313 3.181 3.496L54.83 58l.802.001-.005 5.305zm5.043.26l1.853.002v.717l-1.853-.002-.003 1.572 2.248.004v.717l-2.255-.002-.787-.002.006-5.073.785.002 2.257.002v.711l-2.249-.002zm4.689.586c.328 0 .572-.096.73-.274.193-.205.227-.49.227-.69 0-.204-.034-.491-.225-.696-.156-.178-.402-.268-.73-.268l-.711-.002-.002 1.93h.71zm2.04 2.428h-.896l-1.275-1.717-.581-.002-.003 1.717h-.791l.005-5.075.67.002h.833c.67.002 1.058.276 1.263.508.266.295.41.705.41 1.176 0 .465-.144.875-.411 1.17a1.435 1.435 0 0 1-.59.389l1.366 1.832zm3.194-1.793l-.614-1.545-.617 1.543 1.231.002zm.285.71l-1.804-.001-.43 1.086h-.877l2.214-5.303 2.196 5.306h-.869L67.688 62zm2.799-3.271l-.002 1.537c.159-.033.342-.088.522-.162.252-.103.451-.219.588-.355.142-.137.21-.282.21-.446 0-.244-.087-.34-.163-.394-.19-.145-.559-.178-.826-.18h-.329zm1.637 2.86a.85.85 0 0 0-.265-.651 1.264 1.264 0 0 0-.39-.252c-.068.027-.136.06-.21.088-.281.115-.56.184-.774.232l-.002 1.366.327.002c.433 0 .78-.077 1.007-.22a.617.617 0 0 0 .307-.566m.71 0c0 .254-.053.479-.163.684-.11.191-.267.355-.466.484-.348.22-.82.334-1.395.334h-.45l-.67-.002.005-5.07h1.121c.562.002.971.104 1.258.316.157.118.273.268.349.438.067.156.101.336.101.533 0 .274-.09.61-.398.93.082.055.157.117.232.183.15.153.268.317.348.5.09.206.13.43.129.67m1.67-1.502l1.852.002v.72l-1.852-.003-.002 1.572 2.248.002v.717l-2.256-.002h-.787l.006-5.072h.787l2.256.002-.002.713-2.248-.004zm3.978-.248L78.48 63.1l-.792-.002.006-5.312 3.182 3.498.003-3.254h.8l-.005 5.304zm7.196.733c.002-.52-.142-.95-.408-1.244-.301-.336-.746-.5-1.333-.5h-.41l-.004 3.484h.41c.588.002 1.034-.168 1.333-.496.268-.295.412-.732.412-1.244m.793.002c0 .717-.213 1.332-.616 1.775-.22.246-.493.438-.814.56a3.007 3.007 0 0 1-1.107.196h-1.206l.007-5.072h.793l.41.002c.41 0 .779.06 1.107.199.321.123.596.314.813.56.404.446.615 1.061.613 1.78"/><path transform="rotate(-89.917 90.74 60.576)" class="st0" d="M90.399 59.233h.684v2.686h-.684z"/><path class="st0" d="M97.878 62.101c-.145.492-.59.88-1.143.99a1.64 1.64 0 0 1-.307.028c-.205 0-.41-.036-.603-.112a2 2 0 0 1-.84-.65l.63-.49c.144.191.315.326.5.396.149.06.314.076.464.041.26-.047.47-.217.533-.422.069-.234-.088-.44-.231-.576a35.31 35.31 0 0 1-.622-.601l-.621-.59a1.434 1.434 0 0 1-.389-.608 1.094 1.094 0 0 1-.014-.642c.063-.219.193-.41.377-.569.172-.142.383-.244.61-.285a1.34 1.34 0 0 1 .75.055c.261.103.493.275.691.514l-.622.5c-.26-.317-.527-.317-.67-.29-.179.036-.33.15-.37.293-.027.096-.022.254.191.46l.846.814c.123.123.274.268.384.37.218.198.368.423.442.663.076.233.082.479.014.711m4.022-3.338l-1.395-.002-.004 4.362h-.8l.005-4.362-1.394-.002v-.71l3.588.003zm2.67 2.635l1.337-3.342h.86l-2.18 5.297-2.317-5.3h.875zm7.748 1.736l-2.006-2.299-.004 2.297h-.791l.004-5.072h.792l-.001 2.092 1.628-2.09.998.002-1.862 2.437 2.233 2.635zm2.456-3.004l1.853.002v.717l-1.855-.002v1.574l2.249.002v.717l-2.256-.002h-.787l.005-5.074.788.002 2.255.002-.002.71-2.247-.001zm4.69.586c.327 0 .573-.095.731-.273.19-.205.226-.49.226-.69 0-.205-.033-.492-.225-.697-.158-.178-.403-.267-.73-.267l-.711-.002-.003 1.927.712.002zm2.04 2.43l-.896-.002-1.275-1.719h-.581l-.003 1.717-.792-.002.005-5.07h.67l.834.002c.67 0 1.06.273 1.263.506.268.295.41.705.41 1.175-.001.465-.145.875-.412 1.17a1.444 1.444 0 0 1-.587.389l1.365 1.834zm1.419-3.26l-.004 3.26h-.793l.006-5.31 3.181 3.494.003-3.252h.802l-.007 5.304zm6.933 2.248c-.144.492-.588.883-1.142.99a1.473 1.473 0 0 1-.307.028c-.205 0-.41-.033-.601-.11a2 2 0 0 1-.84-.65l.629-.492c.144.191.314.33.499.396a.78.78 0 0 0 .465.043c.258-.048.471-.218.533-.423.07-.233-.09-.438-.232-.575a50.62 50.62 0 0 1-.62-.601l-.622-.59a1.442 1.442 0 0 1-.39-.608 1.07 1.07 0 0 1-.012-.642 1.17 1.17 0 0 1 .376-.568c.172-.143.383-.245.608-.286.248-.054.506-.033.752.055.26.104.492.274.69.514l-.622.498c-.26-.315-.527-.315-.67-.287-.177.033-.328.15-.37.293-.028.095-.02.252.19.457l.848.816c.124.123.274.266.382.37.218.196.37.423.445.663.074.233.08.479.011.71M63.919 33.941a6.095 6.095 0 0 1-.856.456 5.401 5.401 0 0 1-2.068.415 5.252 5.252 0 0 1-3.735-1.554 5.253 5.253 0 0 1-1.554-3.737c0-.712.143-1.412.414-2.067a5.403 5.403 0 0 1 1.14-1.683 5.006 5.006 0 0 1 1.682-1.126 5.037 5.037 0 0 1 2.053-.414c.713 0 1.412.128 2.068.414.072.029.157.072.227.1v1.953a3.58 3.58 0 0 0-2.295-.812 3.56 3.56 0 0 0-2.566 1.07 3.614 3.614 0 0 0 0 5.132 3.617 3.617 0 0 0 5.132 0 4.4 4.4 0 0 0 .358-.4v2.253zm2.594-9.71h1.653V34.81h-1.653zm6.215 3.779v6.802h-1.654v-11.08l6.644 7.286v-6.786h1.668v11.064zm11.234.527h3.863v1.497h-3.863v3.28h4.691v1.498h-6.345v-10.58h6.345v1.482h-4.691zm15.639 6.275v-5.619l-3.307 4.933-3.322-4.933v5.619h-1.655V23.746l4.977 7.415 4.974-7.415v11.066zm9.723-3.75l-1.283-3.222-1.283 3.222h2.566zm.599 1.483h-3.764l-.898 2.267h-1.824l4.604-11.066 4.59 11.066h-1.81l-.898-2.267zm-52.53 37.683v.816l-3.606-.004.5-.65c.948-1.252 1.372-1.81 1.905-2.521.153-.21.25-.416.278-.582a.457.457 0 0 0-.056-.313c-.11-.185-.373-.29-.643-.25a.793.793 0 0 0-.402.194.997.997 0 0 0-.27.484l-.72-.422c.098-.264.25-.484.444-.664a1.58 1.58 0 0 1 .824-.393c.596-.09 1.19.16 1.466.631.152.248.207.54.16.852-.044.303-.19.629-.43.947-.438.58-.791 1.057-1.414 1.873l1.964.002zm2.983-.883l.002-1.28-.957 1.28h.955zm-.002 1.703v-.9l-2.566-.002 3.375-4.502-.006 3.703h.485v.803h-.485v.898h-.803zm2.497.002a.486.486 0 0 1 .001-.969.492.492 0 0 1 .484.485.486.486 0 0 1-.485.484m2.785.676l1.523-6.42.802.002-1.522 6.418zm8.04-1.478l-.002.816-3.604-.004.499-.65c.949-1.252 1.372-1.81 1.904-2.524.153-.207.25-.414.278-.58.015-.125.001-.23-.054-.312-.112-.188-.374-.291-.644-.25a.796.796 0 0 0-.401.195.965.965 0 0 0-.27.482l-.72-.422a1.69 1.69 0 0 1 .444-.664c.228-.207.512-.345.824-.394.595-.088 1.19.162 1.465.633.152.248.207.539.158.851-.04.303-.186.63-.43.946-.437.582-.79 1.058-1.413 1.875l1.966.002zm2.37.818c-.524-.022-1.079-.229-1.637-.617l.45-.664c.435.299.856.464 1.224.478.283.014.533-.06.718-.219a.908.908 0 0 0 .3-.464.84.84 0 0 0-.034-.52.917.917 0 0 0-.506-.45c-.324-.138-.767-.167-1.28-.097l-.519.074.335-2.656 2.45.002v.797l-1.745-.002-.118.947a2.9 2.9 0 0 1 1.182.196c.436.181.761.478.927.865.29.658.095 1.453-.48 1.924-.324.27-.726.408-1.177.406h-.09zm3.197.004a.48.48 0 0 1-.484-.485c0-.263.216-.484.486-.484.261 0 .484.223.484.484a.49.49 0 0 1-.486.485m4.307-3.295l-.005 3.3-.802-.001.008-5.375 3.218 3.539.004-3.295.81.002-.006 5.369zm5.458-.506a1.753 1.753 0 0 0-.002 2.49 1.752 1.752 0 0 0 2.49.002 1.755 1.755 0 0 0 .003-2.49 1.754 1.754 0 0 0-2.49-.002m.245 3.611a2.53 2.53 0 0 1-.816-.554 2.57 2.57 0 0 1-.553-.817 2.578 2.578 0 0 1 .002-2c.132-.304.32-.574.555-.816a2.574 2.574 0 0 1 2.816-.543c.305.13.575.312.817.547.234.242.414.513.545.816.13.32.199.658.199 1.004a2.57 2.57 0 0 1-1.567 2.365 2.62 2.62 0 0 1-1.003.2c-.346 0-.685-.069-.995-.202m5.84-1.543l1.352-3.382h.873l-2.207 5.36-2.347-5.364.886.002zm8.286.942v.818l-3.604-.004.498-.65c.95-1.252 1.371-1.81 1.906-2.524.153-.207.248-.416.278-.582.013-.123 0-.228-.057-.31-.11-.188-.373-.291-.643-.25a.774.774 0 0 0-.4.193.965.965 0 0 0-.27.485l-.72-.424c.097-.262.249-.483.443-.664.228-.207.512-.346.824-.393.596-.088 1.19.16 1.467.631.15.25.205.541.157.851-.042.305-.186.63-.43.948-.436.582-.79 1.058-1.412 1.873l1.963.002zm1.768-3.022c-.208.319-.333.783-.334 1.266 0 .484.125.95.331 1.275.215.325.504.498.857.498.347 0 .624-.166.83-.49.21-.318.327-.781.327-1.266.002-.484-.116-.949-.323-1.273-.214-.332-.498-.5-.843-.5-.354 0-.637.166-.845.49m-.046 3.598a1.913 1.913 0 0 1-.628-.623c-.298-.457-.463-1.064-.462-1.71 0-.642.167-1.251.458-1.708.173-.256.381-.463.623-.608.27-.166.575-.242.9-.24.326 0 .63.077.892.243.25.144.457.353.622.622.298.458.463 1.067.463 1.71-.002.644-.169 1.246-.459 1.703a1.868 1.868 0 0 1-.617.613 1.72 1.72 0 0 1-.893.242c-.325 0-.63-.084-.899-.244m4.365.248l.004-3.537-.637.478-.476-.644 1.918-1.43-.006 5.133zm1.807.002l1.996-4.33-1.978-.002v-.803l3.238.004-2.371 5.131zM81.215 16.647h4.777v3.386h-4.777zm5.01 1.059h.445v1.27h-.445zm.679-.001l1.429-.615v2.432l-1.429-.546zm-4.788-4.309a1.455 1.455 0 0 0-.02 2.909h2.98v-.001h.032a1.454 1.454 0 1 0-1.434-1.689c-.004.022-.007.213-.011.236h-.103c-.002-.02-.005-.208-.008-.228a1.454 1.454 0 0 0-1.436-1.227m-2.086 3.66a.096.096 0 0 0-.093.085l-.096.778c-.006.053.031.1.084.106l1.056.13v-.983l-.938-.115-.014-.001"/></svg>