<?xml version="1.0" encoding="utf-8"?>
<!-- Generator: Adobe Illustrator 21.1.0, SVG Export Plug-In . SVG Version: 6.00 Build 0)  -->
<svg version="1.1" id="Ebene_1" xmlns="http://www.w3.org/2000/svg" xmlns:xlink="http://www.w3.org/1999/xlink" x="0px" y="0px"
	 viewBox="0 0 168.3377991 85.9310989" style="enable-background:new 0 0 168.3377991 85.9310989;" xml:space="preserve">
<style type="text/css">
	.st0{fill:#FFFFFF;}
</style>
<polygon points="84.1688995,83.126503 165.532196,75.7279968 165.532196,21.8838005 84.1688995,2.8046999 2.8055999,21.8838005 
	2.8055999,75.7279968 "/>
<g>
	<path class="st0" d="M5.6103001,73.108902l78.5586014,7.205101l78.5585938-7.205101V24.1084003L84.1688995,5.6865001
		L5.6103001,24.1084003V73.108902z M84.1688995,85.9310989c-0.0644989,0-0.1288986-0.0018997-0.1934052-0.0057983
		L2.6122999,78.5269012C1.1416,78.4272003,0,77.2025986,0,75.7279968V21.8848c0-1.3027992,0.8974-2.4346008,2.1659999-2.7325001
		L83.5282974,0.0732c0.421814-0.0986,0.8592987-0.0986,1.2812042,0l81.3622971,19.0790997
		c1.2686005,0.2978992,2.1660004,1.4297009,2.1660004,2.7325001v53.8431969c0,1.4746017-1.1416016,2.6992035-2.6123047,2.7989044
		l-81.3631973,7.3983994C84.2977982,85.9291992,84.2333984,85.9310989,84.1688995,85.9310989"/>
	<path class="st0" d="M25.8681087,46.2514992c0-1.3027992-0.3594093-2.3848-1.0303097-3.1231003
		c-0.7547989-0.8402977-1.8701-1.2523994-3.3456898-1.2523994h-1.0302105l0.0009003,8.7544022h1.0293102
		c1.4755898,0,2.5917892-0.4297028,3.3466892-1.2539024C25.5086994,48.6381989,25.8681087,47.5405006,25.8681087,46.2514992
		 M27.8583984,46.2514992c0,1.8027-0.5302906,3.347599-1.5429993,4.4648018
		c-0.5508003,0.6171989-1.2353992,1.0976982-2.0429993,1.4062996c-0.8222904,0.3260994-1.75,0.4980011-2.7792912,0.4980011
		h-2.3515091h-0.6700001V39.8857002h1.9902992h1.0293007c1.0293007,0,1.9570007,0.1534004,2.7793007,0.4971008
		c0.8076077,0.3085976,1.4940987,0.7899971,2.0429001,1.4071999C27.3271084,42.9053001,27.8583984,44.4506989,27.8583984,46.2514992
		"/>
	<path class="st0" d="M34.5711975,43.1615982c-0.8241997,0.8242035-1.2870903,1.9238014-1.2870903,3.089901
		c0,1.1679001,0.4648933,2.2656021,1.2870903,3.0898018c0.8243027,0.8241997,1.923912,1.2870979,3.0899124,1.2851982
		c1.1679993,0,2.2655907-0.4628983,3.0897903-1.2870979c0.8242073-0.8243027,1.2852097-1.9219017,1.2852097-3.089901
		c0-1.1660004-0.4629097-2.2656021-1.2871094-3.0879021c-0.8233032-0.8237-1.9218903-1.2875977-3.0898933-1.2875977
		C36.4931068,41.875,35.3955002,42.3378983,34.5711975,43.1615982 M35.1903992,52.1206017
		c-0.7714996-0.3262024-1.4413986-0.7891006-2.0253983-1.3711014c-0.5840034-0.5839996-1.0468941-1.2538986-1.3731022-2.0273018
		c-0.3260994-0.7695999-0.4979992-1.6113968-0.4979992-2.4706993c0-0.8593979,0.1709003-1.6992989,0.4979992-2.4902992
		c0.3243008-0.7543983,0.7890987-1.4233017,1.3710995-2.0238991c0.5839996-0.5830002,1.2539024-1.0293007,2.0245018-1.3563995
		c0.7733994-0.3262024,1.6142006-0.4981003,2.4716072-0.4981003c0.8583908,0,1.6992912,0.1718979,2.4902916,0.4981003
		c0.7557983,0.3260994,1.4238014,0.7705002,2.0243988,1.3554001c0.5839996,0.6005974,1.0303116,1.2695999,1.3563995,2.0248985
		c0.3262024,0.7891006,0.4981003,1.6309013,0.4981003,2.4883003c0,0.8593979-0.1718979,1.6991997-0.4981003,2.4726982
		c-0.326088,0.7714005-0.7714996,1.4414024-1.3544998,2.0254021c-0.6005898,0.5839005-1.2705002,1.0467987-2.0243988,1.3730011
		c-0.7910004,0.3261986-1.6328011,0.4979973-2.4901886,0.4979973C36.8027,52.6185989,35.9627991,52.4468002,35.1903992,52.1206017"
		/>
	<path class="st0" d="M54.0536995,50.0581017c-0.3614006,1.2362976-1.4765892,2.214798-2.8652992,2.4902
		c-0.2578011,0.0507965-0.5156021,0.0683975-0.7723999,0.0683975c-0.5147018,0-1.0313034-0.0858994-1.5108032-0.2733994
		c-0.8075981-0.3261986-1.509697-0.8594017-2.1112976-1.6309013l1.5780983-1.2362976
		c0.3614006,0.4804001,0.7891121,0.8241997,1.2539024,0.9960976c0.3769989,0.1543007,0.7901001,0.1875,1.1669998,0.1035004
		c0.6513977-0.1210976,1.1835976-0.5508003,1.3388977-1.0663986c0.1709023-0.5839996-0.2245979-1.097702-0.5849991-1.4413986
		c-0.5653992-0.5313034-1.4921989-1.4414024-1.5615005-1.5098l-1.5615005-1.4766006
		c-0.4814987-0.4629021-0.8075981-0.9785004-0.9794998-1.5273018c-0.169899-0.5326996-0.1884995-1.0971985-0.0331879-1.6128006
		c0.1542892-0.5497971,0.4804878-1.0292969,0.9432907-1.4247971c0.4277992-0.3604012,0.9609985-0.6191025,1.5263977-0.7207031
		c0.6192017-0.1366997,1.2705002-0.0858994,1.8897018,0.1366997c0.6503983,0.2568016,1.2352982,0.6865005,1.732399,1.2871017
		l-1.5606003,1.2529984c-0.6523018-0.7890968-1.3221893-0.7890968-1.6826019-0.7207985
		c-0.4462967,0.0859985-0.8231964,0.3780022-0.9266968,0.7392998c-0.0684013,0.2392998-0.0508003,0.6352997,0.4804001,1.1488991
		l2.1288986,2.0430031c0.3086014,0.3085976,0.6865997,0.6679993,0.9609985,0.9257965
		c0.5488129,0.4980011,0.9258118,1.0644035,1.1152,1.6640015C54.2069969,48.8568993,54.2245979,49.4740982,54.0536995,50.0581017"/>
	<path class="st0" d="M64.4384003,50.0581017c-0.3602905,1.2343979-1.4765015,2.2128983-2.8652,2.4882965
		c-0.2578011,0.0527-0.5156021,0.0683022-0.7734032,0.0683022c-0.5146904,0-1.0292969-0.0858994-1.5098-0.2733994
		c-0.8065987-0.3262024-1.5107994-0.8574028-2.1112976-1.6309013l1.5780983-1.2342987
		c0.3613091,0.4785004,0.7910004,0.8222008,1.2539024,0.9940987c0.3768997,0.1543007,0.7890968,0.1894989,1.1679993,0.1035004
		c0.6512985-0.1211014,1.1835976-0.5508003,1.3378983-1.0643997c0.169899-0.5839996-0.2247009-1.0996017-0.5839996-1.4434013
		c-0.5663986-0.5312004-1.4941978-1.4413986-1.5624886-1.5098l-1.5625114-1.4745979
		c-0.4794884-0.4648018-0.8046989-0.9785004-0.9776001-1.5273018c-0.1717987-0.5326996-0.1884003-1.0990982-0.0340996-1.6138
		c0.1542091-0.5498009,0.4804001-1.030201,0.9443016-1.4248009c0.4277-0.3612976,0.960907-0.6180992,1.5263977-0.7216988
		c0.6191025-0.1376991,1.2705116-0.0868988,1.8885994,0.1376991c0.652401,0.2569008,1.2344017,0.6856003,1.7324028,1.2871017
		l-1.5604897,1.2529984c-0.6523132-0.7891006-1.3223114-0.7891006-1.6836128-0.7216988
		c-0.4452972,0.0858994-0.8223,0.3778992-0.9258003,0.7383003c-0.0682983,0.2411995-0.0516968,0.6362,0.4805031,1.1517982
		l2.1289101,2.0410004c0.3085899,0.3086014,0.6874886,0.670002,0.9608879,0.9258003
		c0.5489006,0.4981003,0.9277992,1.0644989,1.1161995,1.6660004C64.5926971,48.8549995,64.6102982,49.4740982,64.4384003,50.0581017
		"/>
</g>
<polygon class="st0" points="70.2060013,45.0620003 74.857399,45.0620003 74.857399,46.8628006 70.2060013,46.8647003 
	70.2080002,50.8120003 75.8525009,50.8120003 75.8535004,52.6128006 70.1903992,52.6147003 68.2157974,52.6147003 
	68.2137985,39.8788986 70.1884003,39.8778992 75.8515015,39.8778992 75.8515015,41.6631012 70.2060013,41.6641006 "/>
<polygon class="st0" points="81.9121094,44.4253006 81.9129944,52.6128006 79.9217987,52.6128006 79.9208984,39.2764015 
	87.919899,48.0463982 87.9179001,39.8759995 89.9256973,39.875 89.9276962,53.1948013 "/>
<polygon class="st0" points="103.3681107,52.6088982 101.3768997,52.6088982 101.3768997,47.1166992 96.2958984,47.1185989 
	96.2967987,52.6108017 94.3055954,52.6108017 94.3045959,39.875 96.2958984,39.875 96.2958984,45.3158989 101.3768997,45.3139992 
	101.375,39.8740005 103.3661957,39.8740005 "/>
<path class="st0" d="M113.9247971,48.0932999l-1.5449982-3.8788986l-1.544899,3.8788986H113.9247971z M114.6455002,49.8783989
	h-4.5313034l-1.0800858,2.7304993h-2.1972122l5.5429001-13.3197975l5.5263977,13.3197975h-2.1807022L114.6455002,49.8783989z"/>
<polygon class="st0" points="128.566391,52.6068993 123.2294006,52.6068993 121.2547989,52.6068993 121.2528992,39.8711014 
	123.2431107,39.8711014 123.2451096,50.8041992 128.5653992,50.8041992 "/>
<polygon class="st0" points="139.0536957,52.6049995 133.7157898,52.6049995 131.743103,52.6049995 131.7411957,39.8700981 
	133.7313995,39.8700981 133.7323914,50.8022003 139.0536957,50.8022003 "/>
<polygon class="st0" points="144.219696,45.0522003 148.8710022,45.0522003 148.8710022,46.8530006 144.219696,46.8530006 
	144.219696,50.8022003 149.8671112,50.8022003 149.8671112,52.6030006 144.2031097,52.6030006 142.2294006,52.6030006 
	142.2274933,39.8681984 144.2021027,39.8681984 149.8661957,39.8671989 149.8661957,41.6523018 144.219696,41.6523018 "/>
<polygon class="st0" points="42.0214005,58.6968002 40.6278992,58.6948013 40.6219978,63.0560989 39.8232002,63.0560989 
	39.8271103,58.6948013 38.4325981,58.6929016 38.4334984,57.9818993 42.0223999,57.9858017 "/>
<g>
	<path class="st0" d="M43.3232002,62.6557999c-0.1991997-0.1503983-0.3496017-0.3339996-0.4512024-0.5469017
		c-0.1161995-0.232399-0.1698875-0.4921989-0.1698875-0.7734985l0.0038872-3.347599h0.7930031l-0.003891,3.3495979
		c0,0.3008003,0.1092911,0.5332031,0.3124886,0.6914024c0.1924019,0.1503983,0.472599,0.2402,0.7733994,0.2402
		c0.2940025,0,0.5741997-0.0879021,0.7714996-0.2402c0.2070007-0.1562004,0.3096123-0.3887024,0.3096123-0.6893997
		l0.003891-3.3497009l0.7997971,0.0019989l-0.0038986,3.347702c0,0.2812004-0.0625,0.5410004-0.1719017,0.7733994
		c-0.1093979,0.2128983-0.2616997,0.3945007-0.4511986,0.5468979c-0.3358994,0.2578011-0.7812004,0.4023018-1.2588005,0.4023018
		C44.1024971,63.0601006,43.6571999,62.9155006,43.3232002,62.6557999"/>
	<path class="st0" d="M48.9774971,60.6400986c0.3281021,0,0.5742035-0.0956993,0.7324028-0.2733994
		c0.1894989-0.205101,0.2245979-0.4921989,0.2245979-0.6913986c0-0.205101-0.0331993-0.4921989-0.2245979-0.6973
		c-0.1562004-0.1777-0.4023018-0.2656021-0.7304993-0.2656021l-0.7109032-0.0019989l-0.0018997,1.9277992L48.9774971,60.6400986z
		 M51.0184975,63.0679016h-0.8964996l-1.2753983-1.7188034h-0.5810013l-0.0029984,1.7168007l-0.7910004-0.0018997l0.0048981-5.0723
		h0.6699028l0.8330002,0.0018997c0.6699982,0.0020027,1.0585976,0.2754021,1.2637062,0.5079002
		c0.2675934,0.294899,0.4101906,0.7031021,0.4101906,1.1757011c-0.0009995,0.464901-0.1445999,0.875-0.4120979,1.1679993
		c-0.1230927,0.1366997-0.3144989,0.294899-0.5879021,0.3886986L51.0184975,63.0679016z"/>
</g>
<polygon class="st0" points="52.4365005,59.8081017 52.4325981,63.0698013 51.6395988,63.0698013 51.6455002,57.7573013 
	54.8271103,61.2533989 54.8291092,57.9995003 55.6307983,58.0014992 55.6259003,63.3060989 "/>
<polygon class="st0" points="57.4804001,60.0679016 59.3330002,60.0698013 59.3330002,60.7865982 57.4804001,60.7846985 
	57.4774971,62.3568993 59.7254982,62.3608017 59.7254982,63.0775986 57.4696999,63.0756989 56.6825981,63.0737 
	56.6893997,58.0014992 57.4735985,58.0033989 59.7313995,58.0054016 59.7304001,58.716301 57.482399,58.7144012 "/>
<g>
	<path class="st0" d="M62.1688995,60.653801c0.3280983,0,0.5723-0.0956993,0.7304993-0.2733994
		c0.1922989-0.205101,0.2265015-0.490303,0.2265015-0.6895027c0-0.2050972-0.0342026-0.4921989-0.2246017-0.6973
		c-0.156189-0.1777-0.4023018-0.267498-0.7304001-0.267498l-0.7109985-0.0020027l-0.0018997,1.9297028H62.1688995z
		 M64.2089005,63.081501h-0.8955002l-1.2754021-1.7168007l-0.5810013-0.0018997l-0.0028877,1.7168007h-0.791111l0.0049019-5.0741997
		l0.669899,0.0018997h0.8330994c0.669899,0.0019989,1.0584984,0.2753983,1.2635994,0.5077972
		c0.2656097,0.295002,0.410202,0.705101,0.4091988,1.1758003c0,0.464901-0.143589,0.875-0.4110985,1.1699028
		c-0.1231003,0.1348-0.3144913,0.2929993-0.5889015,0.3886986L64.2089005,63.081501z"/>
</g>
<path class="st0" d="M67.4032974,61.2886009l-0.614296-1.545002l-0.6172028,1.5429993L67.4032974,61.2886009z
	 M67.6884003,61.9995003l-1.8047028-0.0018997l-0.4305878,1.0858994h-0.8759995l2.2138901-5.3027l2.1962967,5.3065987h-0.8691864
	L67.6884003,61.9995003z"/>
<g>
	<path class="st0" d="M70.4872971,58.7280006l-0.0019989,1.5370979c0.1582031-0.0331993,0.3418121-0.0878983,0.5214996-0.1620979
		c0.2518997-0.1035004,0.4512024-0.2187004,0.5878983-0.3554001c0.142601-0.1367989,0.2108994-0.2812996,0.2108994-0.4454002
		c0-0.2440987-0.0878983-0.3398018-0.1639938-0.3945007c-0.1904907-0.1445007-0.5586014-0.1777-0.8252029-0.1796989H70.4872971z
		 M72.1240005,61.5873985c0.0018997-0.2675972-0.0868912-0.4785004-0.2647018-0.6503983
		c-0.1025009-0.1016006-0.2333984-0.1836014-0.3896027-0.2518997c-0.0683975,0.027298-0.1366959,0.0605011-0.2109985,0.0877991
		c-0.2811966,0.1152992-0.5605011,0.1836014-0.7733994,0.232502l-0.0018997,1.3652l0.3261032,0.0019989
		c0.433609,0,0.7812958-0.0762024,1.0077972-0.2187996C72.0291977,62.019001,72.1240005,61.8394012,72.1240005,61.5873985
		 M72.8348999,61.5873985c0,0.2539024-0.0537033,0.4785004-0.1640015,0.6836014
		c-0.1093979,0.1913986-0.2667007,0.3554993-0.4658966,0.4844017c-0.3476028,0.2186966-0.8193054,0.3339996-1.3955002,0.3339996
		h-0.4502029l-0.6688995-0.0020027l0.0048981-5.0702972h0.7938995h0.3272018
		c0.5615005,0.0018997,0.9707108,0.1035004,1.2577972,0.3163986c0.1572037,0.1171989,0.2723999,0.267601,0.3486023,0.4375
		c0.0673981,0.1562004,0.1016006,0.3358994,0.1016006,0.5331993c-0.0009995,0.2733994-0.0898972,0.6094017-0.3984985,0.9296989
		c0.0820999,0.0547028,0.1572952,0.1172028,0.2324982,0.1836014c0.1502991,0.1523018,0.2675018,0.3163986,0.3476028,0.5
		C72.7958984,61.1226006,72.8368988,61.3471985,72.8348999,61.5873985"/>
</g>
<polygon class="st0" points="74.5047989,60.0853996 76.357399,60.0873985 76.357399,60.8060989 74.5047989,60.8041992 
	74.5028992,62.3764992 76.7509003,62.3783989 76.7509003,63.0951996 74.4951096,63.0932999 73.7080002,63.0932999 
	73.7137985,58.0209999 74.5009003,58.0209999 76.7567978,58.0228996 76.7547989,58.7358017 74.5067978,58.7318993 "/>
<polygon class="st0" points="78.4833984,59.8373985 78.4794006,63.0990982 77.6865005,63.0971985 77.6932983,57.7846985 
	80.875,61.2826996 80.8778992,58.028801 81.6786957,58.028801 81.6727982,63.3334999 "/>
<g>
	<path class="st0" d="M85.6786957,60.5698013c0.0018997-0.5195007-0.1415863-0.9491997-0.4081955-1.2441025
		c-0.3008041-0.3359985-0.7452011-0.5-1.3320999-0.5h-0.4101028l-0.0038986,3.4844017h0.4101028
		c0.5878983,0.0018997,1.0331955-0.1679993,1.3320999-0.4961014C85.5351105,61.519001,85.6786957,61.081501,85.6786957,60.5698013
		 M86.4715958,60.5718002c0,0.7168007-0.2128983,1.3320007-0.6151962,1.7753983
		c-0.2207031,0.2461014-0.4932022,0.4375-0.8144989,0.5605011c-0.3281021,0.1288986-0.6972046,0.1953011-1.107399,0.1953011h-0.9375
		h-0.267601l0.006897-5.0722008h0.7929001l0.4092026,0.0018997c0.4101944,0,0.7792969,0.0606003,1.1074982,0.1991997
		c0.3212128,0.1231003,0.5957031,0.3144989,0.8134003,0.5606003C86.2625961,59.2378006,86.4735947,59.8530006,86.4715958,60.5718002
		"/>
</g>
<rect x="90.3986206" y="59.2326241" transform="matrix(0.0014522 -0.9999989 0.9999989 0.0014522 30.0330639 151.2280121)" class="st0" width="0.6836003" height="2.6860528"/>
<g>
	<path class="st0" d="M97.8778992,62.1011009c-0.1445007,0.4921989-0.5899048,0.8807983-1.142601,0.9902
		c-0.1025009,0.0195007-0.205101,0.027298-0.3076019,0.027298c-0.205101,0-0.410202-0.035099-0.6025848-0.1112976
		c-0.3203125-0.1289024-0.599617-0.3418007-0.8398132-0.6504021l0.6288986-0.4902
		c0.1445007,0.1914024,0.3153992,0.3262024,0.5,0.3964996c0.1493988,0.0605011,0.3144989,0.0762024,0.4649124,0.0410004
		c0.2596893-0.0468979,0.4706879-0.2168007,0.5331879-0.4218979c0.0682983-0.2344017-0.0878983-0.4393997-0.2314987-0.5762024
		c-0.2256012-0.2108994-0.5946884-0.5741997-0.6221008-0.6014977l-0.6211014-0.589901
		c-0.1913986-0.1836014-0.3202972-0.3885994-0.3885956-0.607399c-0.0684052-0.2109032-0.0742035-0.4375-0.0137024-0.642601
		c0.0625-0.2187004,0.1923981-0.410099,0.3769989-0.5683022c0.171814-0.1425972,0.3828125-0.2441978,0.6092987-0.2851982
		c0.2451019-0.0546989,0.5048981-0.035099,0.7509995,0.0546989c0.2608032,0.1035004,0.4922028,0.2754021,0.6903992,0.5137024
		l-0.621994,0.5c-0.2608032-0.3164024-0.5274048-0.3164024-0.6708908-0.2891006
		c-0.1778107,0.0351982-0.3282089,0.1503983-0.3692093,0.2929993c-0.0273056,0.0956993-0.0214996,0.2538986,0.1913986,0.4589996
		l0.8456955,0.8143997c0.1231155,0.1231003,0.2735062,0.267601,0.3838043,0.3692017
		c0.2177963,0.1991997,0.3682022,0.4237976,0.4423981,0.6639977C97.9403992,61.6226006,97.9461975,61.8685989,97.8778992,62.1011009
		"/>
</g>
<polygon class="st0" points="101.9002991,58.7631989 100.5047989,58.7612 100.5009003,63.1226006 99.7011108,63.1226006 
	99.7060013,58.7612 98.3115005,58.7593002 98.3125,58.0483017 101.9002991,58.0522003 "/>
<polygon class="st0" points="104.5692978,61.3978996 105.907196,58.0560989 106.7674942,58.0560989 104.5868988,63.3530006 
	102.2695007,58.0522003 103.1445007,58.0522003 "/>
<polygon class="st0" points="112.3182983,63.1343002 110.3115005,60.8353996 110.3075943,63.1323013 109.5165939,63.1323013 
	109.5205002,58.0601006 110.3134003,58.0601006 110.3115005,60.1519012 111.9403992,58.0620003 112.9384003,58.0639992 
	111.0761108,60.5014992 113.309494,63.1362 "/>
<polygon class="st0" points="114.7743988,60.1304016 116.6268997,60.1323013 116.6268997,60.8490982 114.7723999,60.8471985 
	114.7723999,62.4213982 117.0205002,62.4233017 117.0205002,63.1400986 114.764595,63.1381989 113.9775009,63.1381989 
	113.9833984,58.0639992 114.7705002,58.0658989 117.0262985,58.0679016 117.0243988,58.778801 114.777298,58.7769012 "/>
<g>
	<path class="st0" d="M119.4637985,60.716301c0.3272018,0,0.5733109-0.0956993,0.7314987-0.2733994
		c0.1903992-0.205101,0.2256012-0.490303,0.2256012-0.6895027c0-0.2050972-0.0333023-0.4921989-0.2247009-0.6973
		c-0.1582031-0.1777-0.4032974-0.267498-0.7304001-0.267498l-0.7109985-0.0020027l-0.0028992,1.927803L119.4637985,60.716301z
		 M121.5047989,63.1459999l-0.8964005-0.0019989l-1.2753983-1.7187004h-0.5811005l-0.0028992,1.7168007l-0.7919998-0.0020027
		l0.0048981-5.0702972h0.669899l0.8339996,0.0019989c0.669899,0,1.0595016,0.2733994,1.2636032,0.5057983
		c0.2675934,0.295002,0.4101944,0.705101,0.4101944,1.1758003c-0.0019989,0.464901-0.1454849,0.875-0.4121017,1.1699028
		c-0.1230927,0.1348-0.3153839,0.2929993-0.5878983,0.3886986L121.5047989,63.1459999z"/>
</g>
<polygon class="st0" points="122.9227982,59.8862 122.9188995,63.1459999 122.1259003,63.1459999 122.1317978,57.8353996 
	125.3134003,61.3296013 125.3163986,58.0775986 126.1181107,58.0775986 126.1112976,63.3823013 "/>
<g>
	<path class="st0" d="M129.8563995,62.1343002c-0.1445007,0.4921989-0.5879059,0.8828011-1.1426086,0.9902
		c-0.1015015,0.0214996-0.2041016,0.027401-0.3065948,0.027401c-0.2050934,0-0.410202-0.0333023-0.6016006-0.1094017
		c-0.3212967-0.1309013-0.6014862-0.3418007-0.839798-0.6503983l0.6288986-0.4922028
		c0.1445007,0.1914024,0.314415,0.330101,0.4990082,0.3964996c0.1513977,0.0625,0.3134918,0.0762024,0.464798,0.0430031
		c0.2587891-0.0489006,0.4716949-0.2187996,0.5331879-0.4239006c0.0694122-0.232399-0.0887909-0.4375-0.2313995-0.5741997
		c-0.2256012-0.2129021-0.593689-0.5741997-0.6210938-0.6016006l-0.6210861-0.5898018
		c-0.1924133-0.1854973-0.3222122-0.3905983-0.3896103-0.607399c-0.0693893-0.2128983-0.0752029-0.4375-0.0127029-0.642601
		c0.0625-0.2187996,0.1913986-0.4101982,0.3759003-0.5683975c0.1718979-0.1425018,0.3837967-0.2441025,0.6084061-0.2851028
		c0.2480927-0.0546989,0.5058899-0.0331993,0.7519989,0.0547028c0.2597961,0.1035004,0.4921875,0.2733994,0.6903992,0.5135994
		l-0.6230011,0.4981003c-0.2588043-0.3144989-0.5263977-0.3144989-0.6699066-0.2871017
		c-0.1768036,0.0331993-0.3271942,0.1504021-0.369194,0.2929001c-0.0282898,0.0958023-0.0205002,0.2520027,0.1904984,0.4570999
		l0.8475952,0.8164024c0.1231079,0.1229973,0.273407,0.2655983,0.3818054,0.3690987
		c0.217804,0.1973,0.3692017,0.4239006,0.444397,0.6641006C129.9188995,61.6576996,129.9256897,61.903801,129.8563995,62.1343002"/>
	<path class="st0" d="M63.9188995,33.9413986c-0.2714996,0.1709023-0.5566025,0.3281021-0.8554993,0.4561005
		c-0.6562004,0.2714005-1.3554001,0.4140015-2.0682907,0.4140015c-0.7129097,0-1.4102097-0.142601-2.0528107-0.4140015
		c-0.6416016-0.2705994-1.1971893-0.6553001-1.6826019-1.139698c-0.4843979-0.485302-0.8690987-1.0419998-1.1395874-1.6836014
		c-0.2715111-0.6415997-0.4141121-1.3397999-0.4141121-2.0527s0.142601-1.4120998,0.4141121-2.0674
		c0.2704887-0.6278992,0.6551895-1.1973,1.1395874-1.6826c0.4854126-0.4843998,1.0410004-0.8701,1.6826019-1.1269989
		c0.642601-0.2851009,1.339901-0.4131012,2.0528107-0.4131012c0.7128906,0,1.4120903,0.1280003,2.0682907,0.4131012
		c0.0712967,0.0292988,0.1562996,0.0723,0.2265968,0.1005993v1.9531002c-0.6405983-0.5272999-1.4394989-0.8125-2.2948875-0.8125
		c-0.968811,0-1.8809128,0.3710995-2.5664101,1.0693989c-0.6835899,0.6845016-1.0694008,1.5967007-1.0694008,2.5664005
		s0.3858109,1.8817997,1.0694008,2.5663986c0.6854973,0.6846008,1.597599,1.0693016,2.5664101,1.0693016
		c0.9706879,0,1.8827896-0.3847008,2.5663872-1.0693016c0.1289024-0.1278992,0.2422028-0.2558975,0.3574028-0.3993988V33.9413986z"
		/>
</g>
<rect x="66.5125961" y="24.2313995" class="st0" width="1.6533999" height="10.5790997"/>
<polygon class="st0" points="72.7275009,28.0098 72.7275009,34.8115005 71.0741959,34.8115005 71.0741959,23.7324009 
	77.7176971,31.0184994 77.7176971,24.2324009 79.3856964,24.2324009 79.3856964,35.2958984 "/>
<polygon class="st0" points="83.9618988,28.5370998 87.8251114,28.5370998 87.8251114,30.0342007 83.9618988,30.0342007 
	83.9618988,33.3143997 88.6532974,33.3143997 88.6532974,34.8115005 83.9481964,34.8115005 82.3084946,34.8115005 
	82.3084946,24.2324009 83.9481964,24.2324009 88.6532974,24.2324009 88.6532974,25.7138996 83.9618988,25.7138996 "/>
<polygon class="st0" points="99.6014938,34.8115005 99.6014938,29.1933994 96.2938995,34.1259995 92.9715958,29.1933994 
	92.9715958,34.8115005 91.3172989,34.8115005 91.3172989,23.7460995 96.2938995,31.1611004 101.2684937,23.7460995 
	101.2684937,34.8115005 "/>
<path class="st0" d="M109.3241959,31.0615005l-1.2831955-3.2217007l-1.2832031,3.2217007H109.3241959z M109.9227982,32.544899
	h-3.7636871l-0.8984146,2.2666016h-1.8241959l4.6044998-11.0654011l4.589798,11.0654011h-1.8096008L109.9227982,32.544899z"/>
<g>
	<path class="st0" d="M57.3934975,70.2279968v0.8164062l-3.6063881-0.0039062l0.4990005-0.6503983
		c0.9491882-1.2518997,1.3729973-1.8105011,1.906189-2.5214996c0.152401-0.2089005,0.25-0.4160004,0.277401-0.5820007
		c0.0136986-0.125,0-0.2285004-0.0557022-0.3125c-0.1102982-0.1855011-0.3729973-0.2910004-0.6434975-0.25
		c-0.1523933,0.0293045-0.2911034,0.0899048-0.4013901,0.1934052c-0.1240005,0.1190948-0.2217102,0.2850952-0.2705116,0.4843979
		l-0.7187996-0.4218979c0.0976982-0.2637024,0.25-0.4844055,0.4434013-0.6641006
		c0.2284966-0.2070007,0.5126991-0.3457031,0.8241997-0.392601c0.5957069-0.089798,1.1894989,0.160202,1.4657974,0.6308975
		c0.1514015,0.2480011,0.2070999,0.5391006,0.1592026,0.8516006c-0.0430031,0.3027039-0.1884995,0.6288986-0.4297028,0.947197
		c-0.4375,0.580101-0.7910004,1.0567017-1.4139977,1.8731003L57.3934975,70.2279968z"/>
</g>
<path class="st0" d="M60.3759003,69.3451996l0.0019989-1.2792969l-0.9570007,1.2792969H60.3759003z M60.3739967,71.0483017
	v-0.9003983l-2.5663986-0.0018997l3.375-4.5020065l-0.0059013,3.7032013h0.4854126l-0.0009995,0.8027039h-0.4844131v0.8983994
	H60.3739967z"/>
<g>
	<path class="st0" d="M62.8709984,71.0503006c-0.2705002,0-0.4833984-0.2148972-0.4833984-0.4843979
		c0-0.2637024,0.2148972-0.4844055,0.4843979-0.4844055c0.2637024,0.0020065,0.4844017,0.222702,0.4844017,0.4844055
		C63.3563995,70.8374023,63.1336975,71.0503006,62.8709984,71.0503006"/>
</g>
<polygon class="st0" points="65.6561966,71.7260971 67.1786957,65.3060989 67.9813995,65.3080978 66.4589005,71.7260971 "/>
<g>
	<path class="st0" d="M73.6961975,70.2475967l-0.0018997,0.8164062l-3.6044998-0.0039062l0.4990005-0.6503983
		c0.9491959-1.2519989,1.3721008-1.8106003,1.9043121-2.5234985c0.1532898-0.2070007,0.25-0.4140015,0.2773895-0.580101
		c0.0156097-0.125,0.0018997-0.2304001-0.0538025-0.3125c-0.1112976-0.1875-0.3740005-0.2910004-0.6435013-0.25
		c-0.152298,0.0293045-0.2910004,0.0918045-0.4013977,0.1954041c-0.1240005,0.1151962-0.2216873,0.2811966-0.2705002,0.482399
		l-0.7186966-0.4219055c0.0956955-0.2636948,0.2489929-0.4843979,0.4432983-0.664093
		c0.2285004-0.2070007,0.5116959-0.3457031,0.8242111-0.3945007c0.5947876-0.0879059,1.1894836,0.1620941,1.4648895,0.6327972
		c0.152298,0.2481003,0.2070007,0.5391006,0.1581955,0.8516006c-0.0410004,0.3026962-0.1865005,0.6288986-0.4296951,0.9452972
		c-0.4375,0.5820007-0.7900009,1.0586014-1.4131012,1.875L73.6961975,70.2475967z"/>
	<path class="st0" d="M76.0663986,71.0659027c-0.524498-0.0214996-1.0791016-0.2285004-1.6377029-0.6172028l0.4511032-0.6640015
		c0.4346008,0.2988052,0.8554993,0.464798,1.222702,0.4785004c0.2831955,0.0137024,0.5331955-0.0606003,0.7186966-0.2187958
		c0.1464996-0.1191025,0.25-0.2851028,0.298912-0.4648056c0.0410004-0.1796951,0.0350876-0.3593979-0.0332108-0.5195007
		c-0.0909042-0.1933975-0.2637024-0.351593-0.5058975-0.449295c-0.3242035-0.1386032-0.7666016-0.1679001-1.2793045-0.0976028
		l-0.5195007,0.0742035l0.3349152-2.6563034l2.4492874,0.0019989v0.7969055l-1.7442017-0.0020065l-0.1180878,0.9473038
		c0.4500885-0.0117035,0.843689,0.0566025,1.1815872,0.1952972c0.4365005,0.1816025,0.7617035,0.4785004,0.9277039,0.8652039
		c0.2901001,0.6581955,0.0947952,1.4532013-0.4804001,1.9238968c-0.3243027,0.2695007-0.7256012,0.4082031-1.1768036,0.4062042
		H76.0663986z"/>
	<path class="st0" d="M79.2625961,71.0698013c-0.2694855,0-0.4842987-0.214798-0.4833984-0.4843979
		c0-0.2636032,0.2159119-0.4843063,0.4853973-0.4843063c0.2617035,0,0.4844055,0.2226028,0.4844055,0.4843063
		C79.7470016,70.8550034,79.5252991,71.0698013,79.2625961,71.0698013"/>
</g>
<polygon class="st0" points="83.5692978,67.7749023 83.5653992,71.0756989 82.7625961,71.0737 82.7705002,65.6987 
	85.9891968,69.2378006 85.9931107,65.9429016 86.8026962,65.9448013 86.7967987,71.314003 "/>
<g>
	<path class="st0" d="M89.0282974,67.2689972c-0.3320999,0.330101-0.5195999,0.7735062-0.5205002,1.2442017
		c0,0.4707031,0.1865005,0.9140015,0.5185013,1.2461014c0.3320999,0.3320007,0.7734985,0.5195007,1.2442017,0.5195007
		c0.4706955,0,0.9139938-0.1855011,1.2460938-0.517601c0.3320007-0.3320007,0.519516-0.7753983,0.519516-1.2441025
		c0.0009995-0.4706955-0.1856155-0.9141006-0.5176086-1.2460938c-0.330101-0.3320007-0.7733917-0.5195007-1.2441025-0.5195007
		C89.8036957,66.751503,89.3602982,66.9369965,89.0282974,67.2689972 M89.2743988,70.8804016
		c-0.3125-0.1309052-0.5820999-0.3203049-0.8163986-0.5547028c-0.2344055-0.2362976-0.4218903-0.5058975-0.552803-0.8163986
		c-0.1307983-0.3125-0.2002029-0.6503983-0.2002029-0.9961014c0.0010071-0.3456955,0.0694046-0.6856003,0.2022018-1.0038986
		c0.1318054-0.3047028,0.3203049-0.5742035,0.5547028-0.8163986c0.2342987-0.2343979,0.5047989-0.4141006,0.8163986-0.5449982
		c0.3115005-0.130806,0.6503983-0.2011032,0.9980011-0.1992035c0.344696,0,0.6836014,0.0702972,1.0019989,0.2012024
		c0.3047028,0.1308975,0.5742035,0.3125,0.8163986,0.5468979c0.2344131,0.2422028,0.4140015,0.5136032,0.544899,0.8163986
		c0.1309052,0.3203049,0.1992035,0.6582031,0.1992035,1.0038986c0,0.3457031-0.0702972,0.6855011-0.2012024,0.9961014
		c-0.1317978,0.3125-0.3124847,0.5820007-0.5467987,0.8163986c-0.2422028,0.2344055-0.5136871,0.4219055-0.8183975,0.5527039
		c-0.3174057,0.1308975-0.6562042,0.1991959-1.0038986,0.1991959
		C89.9227982,71.0814972,89.5839005,71.0131989,89.2743988,70.8804016"/>
</g>
<polygon class="st0" points="95.1141968,69.3374023 96.4657974,65.9545975 97.3387985,65.9545975 95.1317978,71.3159027 
	92.7851105,65.9506989 93.6708984,65.9525986 "/>
<g>
	<path class="st0" d="M103.4002991,70.278801v0.8183975l-3.6044006-0.0038986l0.4980011-0.6503983
		c0.9492111-1.2519989,1.3711014-1.8106003,1.9062119-2.5234985c0.1523895-0.2070007,0.248085-0.4160004,0.2773895-0.5820007
		c0.0136948-0.1230011,0-0.2285004-0.0566025-0.3105011c-0.1093979-0.1875-0.3731003-0.2910995-0.642601-0.25
		c-0.1523972,0.027298-0.2901001,0.089798-0.4003983,0.1932983c-0.125,0.1172028-0.222702,0.2832031-0.2705002,0.4843979
		l-0.7198029-0.4237976c0.097702-0.2618027,0.2490997-0.4824982,0.4433975-0.6641006
		c0.2285004-0.2070007,0.5117035-0.3456955,0.8242035-0.392601c0.5957031-0.0878983,1.1904984,0.160202,1.4667969,0.6309052
		c0.1504059,0.25,0.2051163,0.5410004,0.1572037,0.8514938c-0.0419006,0.3047028-0.1865005,0.6289062-0.4296036,0.9473038
		c-0.4365997,0.5820007-0.7901001,1.0586014-1.4130936,1.8731003L103.4002991,70.278801z"/>
	<path class="st0" d="M105.1679001,67.2573013c-0.2080002,0.3183975-0.3330002,0.7831955-0.3339996,1.2656021
		c0,0.4843979,0.125,0.949295,0.3311005,1.2753983c0.214798,0.324295,0.5038986,0.4981003,0.857399,0.4981003
		c0.3467102,0,0.6231003-0.1660004,0.830101-0.490303c0.2089996-0.3182983,0.3261948-0.7811966,0.3261948-1.2656021
		c0.0018997-0.4843979-0.1152954-0.9491959-0.3222961-1.2733994c-0.2148056-0.3320007-0.4980011-0.5-0.8438034-0.5
		C105.659111,66.7670975,105.3759003,66.9330978,105.1679001,67.2573013 M105.121994,70.8550034
		c-0.2479935-0.1445999-0.4559937-0.3594055-0.6278839-0.6231003c-0.2979126-0.4570007-0.4629135-1.0643997-0.4619141-1.7089996
		c0-0.6425018,0.1669998-1.2518997,0.4580002-1.7089005c0.1727982-0.2559052,0.3807983-0.4629059,0.6230011-0.6075058
		c0.2705002-0.1660004,0.5752029-0.2420959,0.8993988-0.2401962c0.3262024,0,0.6308975,0.0762024,0.892601,0.2422028
		c0.25,0.1444931,0.4570999,0.3534927,0.6221008,0.6229935c0.2978134,0.4570999,0.4628983,1.0664062,0.4628983,1.7089996
		c-0.0019989,0.6445999-0.1689987,1.2461014-0.4589996,1.7031021c-0.1669998,0.2618027-0.3740005,0.4688034-0.6172028,0.6133041
		c-0.2705002,0.1601944-0.5673981,0.2421951-0.8934937,0.2421951
		C105.6961975,71.0990982,105.3915939,71.0150986,105.121994,70.8550034"/>
</g>
<polygon class="st0" points="109.4872971,71.1029968 109.4911957,67.5659027 108.8544006,68.0444031 108.3778992,67.3999023 
	110.2958984,65.9701996 110.2900009,71.1029968 "/>
<polygon class="st0" points="111.2938995,71.1050034 113.2900009,66.7749023 111.3115005,66.7729034 111.3125,65.9701996 
	114.5497971,65.9740982 112.1786957,71.1050034 "/>
<rect x="81.214798" y="16.6474991" class="st0" width="4.7773104" height="3.3857"/>
<rect x="86.2254944" y="17.7059994" class="st0" width="0.4454" height="1.2696"/>
<polygon class="st0" points="86.9041977,17.7050991 88.3330002,17.0897999 88.3330002,19.5224991 86.9041977,18.9755993 "/>
<g>
	<path class="st0" d="M82.1161957,13.3964996c-0.8027954,0-1.4550858,0.6504002-1.4550858,1.4541006
		c0,0.7958994,0.6415863,1.442399,1.4354858,1.4541006h0.0195999h2.9589157v-0.0010014
		c0.0117874,0.0010014,0.0214844,0.0010014,0.033287,0.0010014c0.8027115,0,1.4531021-0.6514006,1.4531021-1.4541006
		c0-0.8037004-0.6503906-1.4541006-1.4531021-1.4541006c-0.722702,0-1.3222885,0.5263004-1.4346008,1.2187004
		c-0.0038986,0.0214996-0.006897,0.2129002-0.0108032,0.2354002h-0.1034927
		c-0.0019073-0.0195999-0.0049057-0.2080002-0.0078049-0.2276001
		C83.4422989,13.9287004,82.8416977,13.3964996,82.1161957,13.3964996"/>
	<path class="st0" d="M80.0291977,17.0557003c-0.0467987,0.0009003-0.0868988,0.0370998-0.0926971,0.0848999l-0.0957031,0.7782993
		c-0.0058975,0.0528011,0.0312042,0.0995998,0.0839996,0.1065006l1.0566025,0.1299v-0.9834003l-0.9384995-0.1152992
		C80.0390015,17.0557003,80.034111,17.0557003,80.0291977,17.0557003"/>
</g>
</svg>
